<?xml version="1.0" encoding="UTF-8" standalone="no"?>
<!-- Created with Inkscape (http://www.inkscape.org/) -->

<svg
   version="1.1"
   id="svg2"
   width="2223.3733"
   height="513.85333"
   viewBox="0 0 2223.3733 513.85333"
   sodipodi:docname="LAS_logo_fullcolor.eps"
   xmlns:inkscape="http://www.inkscape.org/namespaces/inkscape"
   xmlns:sodipodi="http://sodipodi.sourceforge.net/DTD/sodipodi-0.dtd"
   xmlns="http://www.w3.org/2000/svg"
   xmlns:svg="http://www.w3.org/2000/svg">
  <defs
     id="defs6" />
  <sodipodi:namedview
     id="namedview4"
     pagecolor="#ffffff"
     bordercolor="#000000"
     borderopacity="0.25"
     inkscape:showpageshadow="2"
     inkscape:pageopacity="0.0"
     inkscape:pagecheckerboard="0"
     inkscape:deskcolor="#d1d1d1" />
  <g
     id="g8"
     inkscape:groupmode="layer"
     inkscape:label="ink_ext_XXXXXX"
     transform="matrix(1.3333333,0,0,-1.3333333,0,513.85333)">
    <g
       id="g10"
       transform="scale(0.1)">
      <path
         d="M 0,1926.95 1897.08,3853.91 V 0 Z"
         style="fill:#cd1e25;fill-opacity:1;fill-rule:nonzero;stroke:none"
         id="path12" />
      <path
         d="M 2212.31,3853.91 4114.72,1926.97 2211.71,0 h 569.66 L 4684.33,1926.93 2781.89,3853.91 h -569.58"
         style="fill:#b0b0ae;fill-opacity:1;fill-rule:nonzero;stroke:none"
         id="path14" />
      <path
         d="M 3945.69,3853.91 H 3141.58 L 5043.96,1926.98 3140.96,0 h 804.23 l 1902.95,1926.91 -1902.45,1927"
         style="fill:#cd1e25;fill-opacity:1;fill-rule:nonzero;stroke:none"
         id="path16" />
      <path
         d="m 1305.76,2389.95 h 199.64 v -756.86 h 391.68 v -155.4 h -591.32 v 912.26"
         style="fill:#ffffff;fill-opacity:1;fill-rule:nonzero;stroke:none"
         id="path18" />
      <path
         d="m 2494.61,1822.63 -126.35,389.16 -135.2,-389.16 z m -5.06,568.57 317.14,-913.51 h -197.1 l -65.7,197.11 h -361.37 l -68.23,-197.11 H 1927.3 l 329.77,913.51 h 232.48"
         style="fill:#100f0d;fill-opacity:1;fill-rule:nonzero;stroke:none"
         id="path20" />
      <path
         d="m 3051.71,1769.56 c 0,-42.96 -2.54,-173.1 165.51,-173.1 106.14,0 173.1,50.54 173.1,127.62 0,80.86 -56.86,94.75 -173.1,122.55 -217.32,54.33 -336.09,118.77 -336.09,276.71 0,150.36 107.4,283.02 361.37,283.02 94.76,0 207.21,-21.48 275.44,-107.39 51.8,-65.7 51.8,-138.99 51.8,-169.31 h -188.26 c -2.53,31.58 -12.64,138.99 -147.83,138.99 -90.97,0 -150.36,-49.28 -150.36,-123.84 0,-84.64 66.97,-99.8 198.37,-132.65 157.94,-37.91 313.35,-80.87 313.35,-259.03 0,-164.25 -136.45,-296.92 -389.16,-296.92 -349.99,0 -352.52,224.91 -353.78,313.35 h 199.64"
         style="fill:#100f0d;fill-opacity:1;fill-rule:nonzero;stroke:none"
         id="path22" />
      <path
         d="m 6190.27,2188.69 v 1067.23 h 136 v -948.98 h 391.7 v -118.25 h -527.7"
         style="fill:#100f0d;fill-opacity:1;fill-rule:nonzero;stroke:none"
         id="path24" />
      <path
         d="m 6944.14,2410.42 c 0,-72.44 35.49,-137.47 116.78,-137.47 73.9,0 165.55,45.82 153.73,286.76 -115.3,-1.49 -270.51,8.85 -270.51,-149.29 z m 273.47,-113.84 h -2.96 c -36.96,-85.73 -94.6,-122.68 -187.72,-122.68 -158.17,0 -203.99,102.01 -203.99,245.39 0,226.15 221.72,236.49 391.71,232.07 2.96,99.02 4.44,206.92 -125.65,206.92 -81.29,0 -124.16,-54.67 -116.77,-133.02 h -131.55 c 5.9,167.04 94.6,224.67 252.76,224.67 192.16,0 242.42,-99.03 242.42,-224.67 v -359.2 c 0,-59.12 5.91,-119.72 14.78,-177.37 h -133.03 v 107.89"
         style="fill:#100f0d;fill-opacity:1;fill-rule:nonzero;stroke:none"
         id="path26" />
      <path
         d="m 7839.96,2272.95 c 152.23,0 152.23,162.59 152.23,274.93 0,199.55 -17.72,303.02 -147.8,303.02 -134.51,0 -140.43,-159.63 -140.43,-258.68 0,-113.81 -13.3,-319.27 136,-319.27 z m -136,-84.26 h -121.2 v 1067.23 h 121.2 v -396.15 h 4.44 c 41.39,59.12 93.12,90.16 164.07,90.16 240.94,0 246.85,-214.33 246.85,-400.58 0,-328.14 -121.21,-375.45 -240.94,-375.45 -78.34,0 -130.07,33.99 -171.46,103.47 h -2.96 v -88.68"
         style="fill:#100f0d;fill-opacity:1;fill-rule:nonzero;stroke:none"
         id="path28" />
      <path
         d="m 8731.31,2602.58 c 0,203.96 -63.54,248.32 -156.67,248.32 -93.11,0 -156.68,-44.36 -156.68,-248.32 0,-242.43 31.04,-329.63 156.68,-329.63 125.64,0 156.67,87.2 156.67,329.63 z m -440.48,-51.74 c 0,218.75 25.12,399.09 283.81,399.09 258.68,0 283.8,-180.34 283.8,-399.09 0,-329.63 -125.64,-376.94 -283.8,-376.94 -158.17,0 -283.81,47.31 -283.81,376.94"
         style="fill:#100f0d;fill-opacity:1;fill-rule:nonzero;stroke:none"
         id="path30" />
      <path
         d="m 9176.29,2822.82 h 2.96 c 50.25,113.81 112.34,127.11 230.6,127.11 v -125.64 c -10.36,1.49 -22.19,2.95 -32.53,4.44 -10.33,1.47 -20.7,2.96 -32.52,2.96 -134.51,0 -168.51,-102.01 -168.51,-202.52 v -440.48 h -121.21 v 746.47 h 121.21 v -112.34"
         style="fill:#100f0d;fill-opacity:1;fill-rule:nonzero;stroke:none"
         id="path32" />
      <path
         d="m 9653.75,2410.42 c 0,-72.44 35.48,-137.47 116.77,-137.47 73.92,0 165.57,45.82 153.74,286.76 -115.3,-1.49 -270.51,8.85 -270.51,-149.29 z m 273.47,-113.84 h -2.96 c -36.95,-85.73 -94.6,-122.68 -187.74,-122.68 -158.16,0 -203.99,102.01 -203.99,245.39 0,226.15 221.74,236.49 391.73,232.07 2.96,99.02 4.42,206.92 -125.64,206.92 -81.31,0 -124.17,-54.67 -116.79,-133.02 h -131.55 c 5.91,167.04 94.6,224.67 252.77,224.67 192.16,0 242.45,-99.03 242.45,-224.67 v -359.2 c 0,-59.12 5.9,-119.72 14.7,-177.37 h -132.98 v 107.89"
         style="fill:#100f0d;fill-opacity:1;fill-rule:nonzero;stroke:none"
         id="path34" />
      <path
         d="m 10295.3,2935.16 v 143.39 l 121.2,54.69 v -198.08 h 162.6 v -91.64 h -162.6 v -456.76 c 0,-47.31 0,-107.9 110.9,-107.9 8.9,0 28.1,2.96 54.7,5.89 v -93.11 c -39.9,-2.95 -79.8,-11.83 -119.8,-11.83 -115.3,0 -167,47.32 -167,133.05 v 530.66 h -122.7 v 91.64 h 122.7"
         style="fill:#100f0d;fill-opacity:1;fill-rule:nonzero;stroke:none"
         id="path36" />
      <path
         d="m 11112.8,2602.58 c 0,203.96 -63.6,248.32 -156.7,248.32 -93.1,0 -156.7,-44.36 -156.7,-248.32 0,-242.43 31,-329.63 156.7,-329.63 125.6,0 156.7,87.2 156.7,329.63 z m -440.5,-51.74 c 0,218.75 25.1,399.09 283.8,399.09 258.7,0 283.8,-180.34 283.8,-399.09 0,-329.63 -125.6,-376.94 -283.8,-376.94 -158.2,0 -283.8,47.31 -283.8,376.94"
         style="fill:#100f0d;fill-opacity:1;fill-rule:nonzero;stroke:none"
         id="path38" />
      <path
         d="m 11557.7,2822.82 h 3 c 50.2,113.81 112.3,127.11 230.6,127.11 v -125.64 c -10.4,1.49 -22.2,2.95 -32.5,4.44 -10.4,1.47 -20.7,2.96 -32.6,2.96 -134.5,0 -168.5,-102.01 -168.5,-202.52 v -440.48 h -121.2 v 746.47 h 121.2 v -112.34"
         style="fill:#100f0d;fill-opacity:1;fill-rule:nonzero;stroke:none"
         id="path40" />
      <path
         d="m 12149,2327.64 h 3 l 178.8,607.52 h 131.6 l -338.5,-1028.81 h -125.7 l 84.3,282.34 -252.8,746.47 h 140.5 l 178.8,-607.52"
         style="fill:#100f0d;fill-opacity:1;fill-rule:nonzero;stroke:none"
         id="path42" />
      <path
         d="m 12931,2935.16 v 144.85 c 0,150.77 106.4,180.34 214.3,180.34 25.1,0 39.9,-1.47 57.6,-4.43 v -87.22 c -128.5,8.87 -150.7,-45.82 -150.7,-106.43 v -127.11 h 150.7 v -91.64 h -150.7 V 2188.69 H 12931 v 654.83 h -115.3 v 91.64 h 115.3"
         style="fill:#100f0d;fill-opacity:1;fill-rule:nonzero;stroke:none"
         id="path44" />
      <path
         d="m 13739.5,2602.58 c 0,203.96 -63.5,248.32 -156.6,248.32 -93.1,0 -156.7,-44.36 -156.7,-248.32 0,-242.43 31,-329.63 156.7,-329.63 125.6,0 156.6,87.2 156.6,329.63 z m -440.4,-51.74 c 0,218.75 25.1,399.09 283.8,399.09 258.7,0 283.8,-180.34 283.8,-399.09 0,-329.63 -125.7,-376.94 -283.8,-376.94 -158.2,0 -283.8,47.31 -283.8,376.94"
         style="fill:#100f0d;fill-opacity:1;fill-rule:nonzero;stroke:none"
         id="path46" />
      <path
         d="m 14184.5,2822.82 h 3 c 50.2,113.81 112.3,127.11 230.6,127.11 v -125.64 c -10.4,1.49 -22.2,2.95 -32.5,4.44 -10.4,1.47 -20.7,2.96 -32.6,2.96 -134.5,0 -168.5,-102.01 -168.5,-202.52 v -440.48 h -121.2 v 746.47 h 121.2 v -112.34"
         style="fill:#100f0d;fill-opacity:1;fill-rule:nonzero;stroke:none"
         id="path48" />
      <path
         d="m 6514,1580.51 h -2.96 L 6344,1011.4 h 341.46 z m -82.79,125.64 h 172.95 L 6951.52,638.898 h -152.24 l -76.87,254.243 h -412.4 l -79.82,-254.243 h -137.47 l 338.49,1067.252"
         style="fill:#100f0d;fill-opacity:1;fill-rule:nonzero;stroke:none"
         id="path50" />
      <path
         d="m 7485.18,638.898 v 517.372 c 0,79.82 -28.08,144.85 -131.56,144.85 -133.03,0 -152.25,-118.26 -152.25,-220.24 V 638.898 h -121.2 v 591.272 c 0,51.74 -2.96,103.48 -7.4,155.21 h 128.6 v -96.09 h 5.91 c 47.3,84.26 103.48,110.85 199.56,110.85 159.63,0 199.55,-96.07 199.55,-243.87 V 638.898 h -121.21"
         style="fill:#100f0d;fill-opacity:1;fill-rule:nonzero;stroke:none"
         id="path52" />
      <path
         d="m 7930.14,860.629 c 0,-72.43 35.49,-137.457 116.77,-137.457 73.93,0 165.57,45.816 153.74,286.758 -115.3,-1.49 -270.51,8.85 -270.51,-149.301 z m 273.47,-113.828 h -2.96 c -36.95,-85.731 -94.6,-122.68 -187.73,-122.68 -158.17,0 -203.98,102 -203.98,245.391 0,226.148 221.72,236.488 391.71,232.068 2.96,99.02 4.43,206.92 -125.64,206.92 -81.3,0 -124.17,-54.67 -116.79,-133.02 h -131.54 c 5.9,167.04 94.59,224.66 252.76,224.66 192.16,0 242.43,-99.02 242.43,-224.66 V 816.281 c 0,-59.121 5.91,-119.73 14.76,-177.383 h -133.02 v 107.903"
         style="fill:#100f0d;fill-opacity:1;fill-rule:nonzero;stroke:none"
         id="path54" />
      <path
         d="M 8676.67,638.898 H 8555.45 V 1706.15 h 121.22 V 638.898"
         style="fill:#100f0d;fill-opacity:1;fill-rule:nonzero;stroke:none"
         id="path56" />
      <path
         d="m 9111.24,777.859 h 2.95 l 178.87,607.521 h 131.55 L 9086.11,356.559 h -125.64 l 84.27,282.339 -252.77,746.482 h 140.42 l 178.85,-607.521"
         style="fill:#100f0d;fill-opacity:1;fill-rule:nonzero;stroke:none"
         id="path58" />
      <path
         d="m 9556.17,1385.38 v 143.38 l 121.21,54.71 v -198.09 h 162.59 v -91.64 H 9677.38 V 836.98 c 0,-47.312 0,-107.902 110.86,-107.902 8.87,0 28.08,2.961 54.69,5.891 v -93.11 c -39.91,-2.961 -79.82,-11.828 -119.73,-11.828 -115.3,0 -167.03,47.309 -167.03,133.047 v 530.662 h -122.69 v 91.64 h 122.69"
         style="fill:#100f0d;fill-opacity:1;fill-rule:nonzero;stroke:none"
         id="path60" />
      <path
         d="m 10072.1,638.898 h -121.23 v 746.482 h 121.23 z M 9943.47,1706.15 h 136.03 v -130.09 h -136.03 v 130.09"
         style="fill:#100f0d;fill-opacity:1;fill-rule:nonzero;stroke:none"
         id="path62" />
      <path
         d="m 10672.2,1145.91 c 3,122.68 -57.6,155.21 -103.5,155.21 -93.1,0 -156.6,-44.36 -156.6,-248.32 0,-242.441 31,-329.628 156.6,-329.628 28.1,0 112.4,29.539 107.9,164.047 h 127.2 c 4.4,-209.879 -152.3,-263.098 -235.1,-263.098 -158.1,0 -283.8,47.309 -283.8,376.939 0,218.75 25.2,399.08 283.8,399.08 149.3,0 236.5,-87.19 229.1,-254.23 h -125.6"
         style="fill:#100f0d;fill-opacity:1;fill-rule:nonzero;stroke:none"
         id="path64" />
      <path
         d="m 11467.5,956.699 v -31.027 c 0,-144.883 91.7,-190.703 178.9,-190.703 107.9,0 190.6,45.82 190.6,172.953 0,236.518 -478.9,209.908 -478.9,530.668 0,189.21 134.5,289.73 313.4,289.73 195.1,0 304.5,-94.6 295.6,-311.9 h -141.9 c 1.5,116.77 -35.5,193.64 -164.1,193.64 -81.3,0 -164,-41.38 -164,-156.69 0,-235.03 478.9,-201.03 478.9,-539.53 0,-224.692 -155.2,-297.102 -331.1,-297.102 -314.9,-2.957 -314.9,237.981 -311.9,339.961 h 134.5"
         style="fill:#100f0d;fill-opacity:1;fill-rule:nonzero;stroke:none"
         id="path66" />
      <path
         d="m 12561.4,1145.91 c 2.9,122.68 -57.7,155.21 -103.5,155.21 -93.1,0 -156.7,-44.36 -156.7,-248.32 0,-242.441 31.1,-329.628 156.7,-329.628 28.1,0 112.4,29.539 107.9,164.047 h 127.1 c 4.5,-209.879 -152.2,-263.098 -235,-263.098 -158.2,0 -283.8,47.309 -283.8,376.939 0,218.75 25.1,399.08 283.8,399.08 149.3,0 236.5,-87.19 229.1,-254.23 h -125.6"
         style="fill:#100f0d;fill-opacity:1;fill-rule:nonzero;stroke:none"
         id="path68" />
      <path
         d="m 13028.5,638.898 h -121.2 v 746.482 h 121.2 z m -128.6,1067.252 h 136 v -130.09 h -136 v 130.09"
         style="fill:#100f0d;fill-opacity:1;fill-rule:nonzero;stroke:none"
         id="path70" />
      <path
         d="m 13647.9,1064.62 c 0,217.29 -60.7,243.88 -149.3,243.88 -76.9,0 -140.5,-36.95 -141.9,-243.88 z m -291.2,-91.659 c 0,-208.422 56.1,-249.789 150.7,-249.789 82.8,0 125.7,66.496 130.1,141.887 h 133 c -1.4,-165.547 -103.4,-240.938 -260.1,-240.938 -158.2,0 -283.8,47.309 -283.8,376.939 0,218.75 25.1,399.08 283.8,399.08 212.8,0 266.1,-116.76 266.1,-363.62 v -63.559 h -419.8"
         style="fill:#100f0d;fill-opacity:1;fill-rule:nonzero;stroke:none"
         id="path72" />
      <path
         d="m 14382.6,638.898 v 517.372 c 0,79.82 -28.2,144.85 -131.6,144.85 -133,0 -152.3,-118.26 -152.3,-220.24 V 638.898 h -121.2 v 591.272 c 0,51.74 -2.9,103.48 -7.4,155.21 h 128.6 v -96.09 h 6 c 47.3,84.26 103.4,110.85 199.5,110.85 159.6,0 199.5,-96.07 199.5,-243.87 V 638.898 h -121.1"
         style="fill:#100f0d;fill-opacity:1;fill-rule:nonzero;stroke:none"
         id="path74" />
      <path
         d="m 15106.9,1145.91 c 2.9,122.68 -57.7,155.21 -103.5,155.21 -93.1,0 -156.7,-44.36 -156.7,-248.32 0,-242.441 31.1,-329.628 156.7,-329.628 28.1,0 112.4,29.539 107.9,164.047 h 127.1 c 4.5,-209.879 -152.2,-263.098 -235,-263.098 -158.2,0 -283.8,47.309 -283.8,376.939 0,218.75 25.1,399.08 283.8,399.08 149.3,0 236.5,-87.19 229.1,-254.23 h -125.6"
         style="fill:#100f0d;fill-opacity:1;fill-rule:nonzero;stroke:none"
         id="path76" />
      <path
         d="m 15865.2,1064.62 c 0,217.29 -60.6,243.88 -149.3,243.88 -76.8,0 -140.4,-36.95 -141.9,-243.88 z M 15574,972.961 c 0,-208.422 56.2,-249.789 150.8,-249.789 82.8,0 125.6,66.496 130.1,141.887 h 133 c -1.5,-165.547 -103.5,-240.938 -260.1,-240.938 -158.2,0 -283.9,47.309 -283.9,376.939 0,218.75 25.2,399.08 283.9,399.08 212.8,0 266,-116.76 266,-363.62 V 972.961 H 15574"
         style="fill:#100f0d;fill-opacity:1;fill-rule:nonzero;stroke:none"
         id="path78" />
      <path
         d="m 16415.1,624.121 c -161.1,0 -261.6,70.938 -257.2,242.43 h 137.5 c 0,-42.871 1.5,-143.379 124.2,-143.379 72.4,0 128.6,36.949 128.6,113.808 0,133.02 -372.5,135.981 -372.5,359.2 0,78.32 47.3,203.96 257.2,203.96 133,0 246.8,-63.54 236.5,-211.37 h -134.5 c 1.5,78.35 -39.9,119.73 -116.8,119.73 -65,0 -115.3,-35.46 -115.3,-100.52 0,-131.55 372.5,-128.59 372.5,-356.218 0,-164.082 -112.4,-227.641 -260.2,-227.641"
         style="fill:#100f0d;fill-opacity:1;fill-rule:nonzero;stroke:none"
         id="path80" />
    </g>
  </g>
</svg>
