<svg id="svg" version="1.1" xmlns="http://www.w3.org/2000/svg" xmlns:xlink="http://www.w3.org/1999/xlink" width="400" height="382.4345146379045" viewBox="0, 0, 400,382.4345146379045"><g id="svgg"><path id="path0" d="M154.774 65.542 C 155.036 65.840,156.900 67.746,158.917 69.779 C 160.933 71.811,165.088 76.011,168.149 79.112 C 180.482 91.607,186.325 97.521,191.831 103.083 C 195.007 106.292,203.409 114.804,210.503 122.000 C 217.597 129.196,225.774 137.483,228.676 140.417 C 231.577 143.350,236.680 148.515,240.017 151.895 C 249.312 161.312,257.229 169.326,263.615 175.784 C 266.806 179.011,270.979 183.240,272.888 185.183 L 276.358 188.715 272.805 192.316 C 270.850 194.296,266.582 198.617,263.319 201.917 C 260.057 205.217,254.619 210.722,251.236 214.150 C 247.852 217.579,243.208 222.277,240.917 224.592 C 238.625 226.907,233.112 232.491,228.667 237.002 C 224.221 241.513,217.846 247.965,214.500 251.340 C 211.154 254.715,205.617 260.313,202.196 263.780 C 198.774 267.247,193.299 272.786,190.029 276.090 C 184.074 282.106,161.905 304.565,156.963 309.590 C 155.517 311.060,154.333 312.316,154.333 312.381 C 154.333 312.447,162.627 312.500,172.764 312.500 L 191.195 312.500 195.473 308.185 C 197.825 305.811,203.012 300.563,207.000 296.521 C 215.615 287.790,223.147 280.166,231.478 271.745 C 234.836 268.350,243.055 260.025,249.743 253.245 C 256.431 246.464,264.611 238.179,267.921 234.833 C 271.231 231.487,276.678 225.975,280.027 222.583 C 291.260 211.206,298.550 203.832,303.250 199.092 C 309.278 193.013,313.333 188.836,313.333 188.707 C 313.333 188.544,302.271 177.279,280.892 155.671 C 277.671 152.414,272.308 146.987,268.976 143.611 C 265.643 140.234,260.217 134.744,256.917 131.410 C 253.617 128.077,247.242 121.624,242.750 117.070 C 238.258 112.516,232.858 107.050,230.750 104.922 C 224.299 98.414,206.179 80.064,204.517 78.358 C 203.656 77.474,200.323 74.106,197.109 70.875 L 191.267 65.000 172.783 65.000 L 154.299 65.000 154.774 65.542 M109.082 183.292 L 109.083 207.583 121.625 207.626 L 134.167 207.669 134.167 212.584 C 134.167 215.750,134.226 217.500,134.333 217.500 C 134.441 217.500,134.500 215.722,134.500 212.500 L 134.500 207.500 121.834 207.500 L 109.168 207.500 109.125 183.250 L 109.082 159.000 109.082 183.292 " stroke="none" fill="#b4b4b4" fill-rule="evenodd"></path><path id="path1" d="M216.167 158.011 C 215.479 158.094,214.365 158.276,213.691 158.415 C 213.016 158.553,212.293 158.667,212.084 158.667 C 211.565 158.667,209.344 159.423,207.863 160.105 C 207.192 160.414,206.599 160.667,206.547 160.667 C 206.370 160.667,204.167 162.076,204.167 162.189 C 204.167 162.251,203.848 162.490,203.458 162.720 C 202.692 163.172,200.422 165.613,200.113 166.317 C 200.009 166.555,199.872 166.788,199.810 166.834 C 198.636 167.703,197.439 172.304,197.426 176.000 C 197.406 181.635,199.005 184.836,203.417 187.991 C 204.722 188.924,209.022 191.167,209.507 191.167 C 209.642 191.167,210.389 191.416,211.168 191.721 C 212.502 192.244,214.649 192.907,216.333 193.316 C 216.746 193.417,218.358 193.845,219.917 194.269 C 221.475 194.692,223.088 195.101,223.500 195.177 C 228.342 196.073,230.922 199.647,229.665 203.716 C 228.305 208.120,223.470 210.265,216.543 209.538 C 211.840 209.044,208.903 205.644,208.555 200.292 L 208.450 198.667 201.975 198.667 L 195.500 198.667 195.503 200.042 C 195.512 203.576,196.430 207.816,197.587 209.667 C 197.787 209.987,198.004 210.418,198.069 210.622 C 198.345 211.492,202.252 215.500,202.824 215.500 C 202.901 215.500,203.450 215.784,204.045 216.132 C 205.836 217.179,208.179 217.928,211.917 218.650 C 214.855 219.217,221.291 219.218,224.454 218.651 C 230.353 217.594,233.660 216.188,237.458 213.121 C 238.123 212.584,238.667 212.093,238.667 212.029 C 238.667 211.966,239.023 211.528,239.458 211.058 C 243.906 206.250,244.710 197.066,241.143 191.795 C 240.065 190.201,236.510 187.167,235.721 187.167 C 235.633 187.167,234.817 186.797,233.906 186.346 C 232.995 185.894,231.463 185.299,230.500 185.024 C 229.537 184.748,227.699 184.221,226.414 183.853 C 225.130 183.485,223.742 183.133,223.331 183.073 C 221.173 182.754,215.046 180.820,213.803 180.065 C 207.837 176.441,210.357 168.482,217.917 167.074 C 221.056 166.489,225.196 167.477,226.667 169.163 C 228.331 171.071,229.004 172.542,229.263 174.834 L 229.376 175.833 235.605 175.833 L 241.833 175.833 241.833 174.929 C 241.833 166.241,236.221 160.026,226.833 158.320 C 224.504 157.896,218.533 157.723,216.167 158.011 M157.221 158.958 C 157.165 159.119,156.708 160.300,156.206 161.583 C 155.704 162.867,155.227 164.195,155.147 164.536 C 155.067 164.876,154.600 166.189,154.110 167.452 C 153.619 168.716,152.988 170.425,152.706 171.250 C 152.425 172.075,151.926 173.454,151.597 174.314 C 151.269 175.175,151.000 175.988,151.000 176.122 C 151.000 176.257,150.892 176.603,150.759 176.891 C 150.433 177.605,149.422 180.263,149.166 181.083 C 149.051 181.450,148.602 182.688,148.168 183.833 C 147.733 184.979,147.284 186.217,147.169 186.583 C 147.054 186.950,146.528 188.412,146.000 189.833 C 145.472 191.254,144.833 193.054,144.581 193.833 C 144.329 194.612,144.068 195.325,144.002 195.417 C 143.936 195.508,143.634 196.333,143.330 197.250 C 143.026 198.167,142.718 199.067,142.645 199.250 C 142.124 200.565,141.321 202.734,141.072 203.500 C 140.908 204.004,140.338 205.559,139.804 206.955 C 139.270 208.352,138.833 209.591,138.833 209.710 C 138.833 209.829,138.452 210.899,137.987 212.088 C 137.113 214.321,136.175 217.093,136.170 217.458 C 136.167 217.621,137.508 217.667,142.325 217.667 L 148.483 217.667 148.760 216.708 C 148.912 216.181,149.219 215.225,149.441 214.583 C 149.664 213.942,150.118 212.629,150.451 211.667 C 150.784 210.704,151.434 208.848,151.894 207.542 L 152.732 205.167 164.176 205.167 L 175.620 205.167 176.534 207.792 C 177.036 209.235,177.676 211.129,177.956 212.000 C 178.236 212.871,178.747 214.408,179.094 215.417 C 179.440 216.425,179.746 217.344,179.773 217.458 C 179.812 217.621,181.266 217.667,186.348 217.667 C 192.483 217.667,192.867 217.649,192.787 217.375 C 192.739 217.215,192.493 216.483,192.239 215.750 C 191.985 215.017,191.401 213.329,190.943 212.000 C 190.484 210.671,190.047 209.512,189.971 209.425 C 189.895 209.338,189.833 209.104,189.833 208.906 C 189.833 208.708,189.565 207.841,189.236 206.981 C 188.908 206.121,188.409 204.704,188.127 203.833 C 187.546 202.039,187.286 201.313,186.337 198.824 C 185.968 197.856,185.667 196.940,185.667 196.787 C 185.667 196.634,185.446 195.952,185.176 195.272 C 184.905 194.592,184.223 192.659,183.660 190.976 C 183.096 189.294,182.496 187.610,182.325 187.235 C 182.155 186.860,181.867 185.997,181.684 185.318 C 181.502 184.639,181.224 183.783,181.067 183.417 C 180.910 183.050,180.277 181.287,179.661 179.500 C 178.068 174.875,177.544 173.382,176.620 170.833 C 176.171 169.596,175.658 168.069,175.480 167.439 C 175.301 166.810,174.903 165.648,174.596 164.856 C 174.288 164.064,173.903 163.004,173.741 162.500 C 173.578 161.996,173.222 160.927,172.950 160.125 L 172.454 158.667 164.889 158.667 C 157.833 158.667,157.316 158.686,157.221 158.958 M165.331 173.479 C 165.332 173.605,165.754 174.918,166.269 176.396 C 166.783 177.874,167.260 179.346,167.329 179.667 C 167.398 179.987,167.846 181.375,168.326 182.750 C 168.806 184.125,169.271 185.550,169.359 185.917 C 169.446 186.283,169.898 187.671,170.362 189.000 C 170.826 190.329,171.286 191.717,171.384 192.083 C 171.482 192.450,171.726 193.275,171.926 193.917 L 172.289 195.083 164.285 195.127 C 159.883 195.150,156.260 195.149,156.234 195.123 C 156.208 195.097,156.408 194.454,156.677 193.693 C 156.946 192.932,157.167 192.198,157.167 192.062 C 157.167 191.926,157.306 191.500,157.477 191.116 C 157.899 190.165,159.167 186.593,159.167 186.354 C 159.167 186.248,159.579 185.072,160.084 183.741 C 160.588 182.410,161.069 181.042,161.152 180.702 C 161.234 180.362,161.617 179.258,162.001 178.250 C 162.385 177.242,162.912 175.717,163.171 174.861 C 163.430 174.006,163.760 173.057,163.904 172.753 C 164.049 172.449,164.167 172.160,164.167 172.111 C 164.167 171.130,164.558 171.159,164.929 172.167 C 165.148 172.762,165.329 173.353,165.331 173.479 " stroke="none" fill="#040404" fill-rule="evenodd"></path><path id="path2" d="M131.350 67.682 C 129.920 69.158,126.875 72.257,124.583 74.571 C 122.292 76.884,118.097 81.133,115.263 84.013 C 112.428 86.893,107.852 91.537,105.094 94.333 C 102.337 97.129,95.732 103.842,90.419 109.250 C 85.105 114.658,78.356 121.521,75.422 124.500 C 68.310 131.722,62.474 137.648,56.236 143.985 C 53.402 146.863,49.283 151.041,47.083 153.268 C 44.883 155.495,40.308 160.141,36.917 163.593 C 30.210 170.419,25.382 175.308,17.458 183.298 C 14.640 186.140,12.333 188.557,12.333 188.669 C 12.333 188.847,19.716 196.406,36.585 213.500 C 39.163 216.112,43.480 220.493,46.178 223.234 C 53.557 230.732,60.774 238.056,65.333 242.675 C 67.579 244.951,72.192 249.638,75.583 253.091 C 78.975 256.544,83.587 261.225,85.833 263.493 C 88.079 265.761,92.204 269.941,95.000 272.782 C 97.796 275.623,102.333 280.230,105.083 283.019 C 109.690 287.691,126.272 304.554,131.738 310.125 C 133.020 311.431,134.166 312.500,134.284 312.500 C 134.460 312.500,134.500 303.777,134.500 265.084 L 134.500 217.668 115.375 217.626 L 96.250 217.583 96.208 188.292 L 96.166 159.000 102.666 159.000 L 109.167 159.000 109.167 183.250 L 109.167 207.500 121.833 207.500 L 134.500 207.500 134.500 136.250 C 134.500 70.177,134.480 65.000,134.225 65.000 C 134.074 65.000,132.780 66.207,131.350 67.682 M214.181 65.292 C 214.303 65.452,216.668 67.871,219.438 70.667 C 224.726 76.005,232.377 83.748,242.833 94.346 C 246.271 97.830,251.371 102.994,254.167 105.820 C 256.962 108.647,262.054 113.800,265.481 117.271 C 276.125 128.054,283.660 135.681,289.831 141.917 C 293.096 145.217,301.273 153.504,308.001 160.333 C 314.729 167.162,322.795 175.338,325.925 178.500 C 329.056 181.662,332.597 185.253,333.796 186.478 L 335.975 188.706 333.362 191.384 C 331.926 192.857,328.462 196.365,325.667 199.181 C 322.871 201.996,317.358 207.570,313.417 211.568 C 309.475 215.566,303.662 221.452,300.500 224.648 C 297.337 227.844,291.946 233.300,288.518 236.772 C 285.090 240.243,279.578 245.824,276.268 249.173 C 262.447 263.159,252.353 273.381,233.166 292.822 C 226.704 299.370,219.748 306.408,217.708 308.462 C 215.669 310.515,214.000 312.264,214.000 312.348 C 214.000 312.439,224.402 312.500,239.965 312.500 L 265.930 312.500 270.345 308.042 C 272.773 305.590,280.195 298.075,286.838 291.342 C 293.481 284.609,300.979 277.017,303.500 274.470 C 306.021 271.923,311.758 266.114,316.250 261.561 C 320.742 257.008,326.704 250.976,329.500 248.157 C 332.296 245.338,337.808 239.761,341.750 235.764 C 349.088 228.324,355.701 221.633,366.476 210.746 C 382.838 194.214,388.000 188.935,388.000 188.735 C 388.000 188.490,386.110 186.526,377.917 178.252 C 374.800 175.105,369.707 169.954,366.599 166.807 C 352.548 152.574,348.387 148.362,342.834 142.750 C 339.569 139.450,331.428 131.200,324.744 124.417 C 318.060 117.633,309.995 109.458,306.822 106.250 C 303.649 103.042,298.322 97.650,294.985 94.270 C 284.455 83.602,277.363 76.430,271.605 70.625 L 266.026 65.000 239.993 65.000 C 215.226 65.000,213.970 65.014,214.181 65.292 " stroke="none" fill="#cc0404" fill-rule="evenodd"></path><path id="path3" d="M96.333 188.250 L 96.333 217.500 115.250 217.500 L 134.167 217.500 134.167 212.584 L 134.167 207.669 121.625 207.626 L 109.083 207.583 109.041 183.292 L 108.999 159.000 102.666 159.000 L 96.333 159.000 96.333 188.250 " stroke="none" fill="#fbfbfb" fill-rule="evenodd"></path><path id="path4" d="M96.249 188.250 L 96.250 217.583 115.375 217.584 L 134.500 217.585 115.417 217.542 L 96.334 217.499 96.291 188.208 L 96.249 158.917 96.249 188.250 " stroke="none" fill="#dc4444" fill-rule="evenodd"></path></g></svg>