<svg version="1.1" id="Layer_1" xmlns="http://www.w3.org/2000/svg" xmlns:xlink="http://www.w3.org/1999/xlink" x="0px" y="0px"
	 width="100%" viewBox="0 0 488 393" enable-background="new 0 0 488 393" xml:space="preserve">
<path fill="#FFFFFF" opacity="1.000000" stroke="none" 
	d="
M489.000000,165.000000 
	C489.000000,241.333344 489.000000,317.666687 489.000000,394.000000 
	C480.240997,394.000000 471.589142,394.000000 462.468658,393.542786 
	C462.000000,390.489990 462.000000,387.894440 462.000000,384.929840 
	C457.048584,384.929840 452.773865,384.929840 448.304169,384.929840 
	C448.304169,382.815582 448.304169,381.103851 448.304169,378.848999 
	C451.996948,378.848999 455.399994,378.848999 458.581818,378.848999 
	C461.125336,367.902100 452.380371,372.084717 447.967285,370.641632 
	C448.062866,368.639740 448.139435,367.035309 448.242188,364.883179 
	C452.588104,364.883179 456.658813,364.883179 460.761841,364.883179 
	C460.761841,362.049286 460.761841,359.782928 460.761841,357.313721 
	C453.142975,357.313721 445.763367,357.313721 438.479553,357.313721 
	C438.273254,357.926392 438.083099,358.228943 438.082123,358.532043 
	C438.044006,370.354675 438.023132,382.177338 438.000000,394.000000 
	C434.969391,394.000000 431.938812,394.000000 428.623993,393.658203 
	C432.519928,391.787140 433.222961,389.102173 430.775085,383.272614 
	C425.858246,385.588226 420.741791,387.920868 416.219849,382.665833 
	C412.628937,378.492798 413.112335,373.436951 415.201630,369.185577 
	C418.801056,361.861298 425.165222,365.769226 430.406555,367.009735 
	C430.992279,364.734711 431.669891,363.025330 431.795135,361.276367 
	C431.872437,360.197296 431.446198,358.515381 430.668335,358.030121 
	C423.485596,353.549164 410.494415,356.656860 406.895325,363.189697 
	C400.391479,374.995148 403.150360,385.970093 415.000000,394.000000 
	C409.645081,394.000000 404.290131,394.000000 398.467590,393.531342 
	C398.000000,381.146698 398.000000,369.230713 398.000000,357.407501 
	C394.610657,357.407501 391.904358,357.407501 388.734314,357.407501 
	C388.734314,363.288788 388.734314,368.767395 388.734314,374.908295 
	C385.657959,370.447266 383.025513,366.701538 380.467834,362.905426 
	C375.864288,356.072784 375.575012,355.936401 367.000000,357.723969 
	C367.000000,369.762909 367.000000,381.881470 367.000000,394.000000 
	C365.285645,394.000000 363.571289,394.000000 361.428467,393.542786 
	C361.000000,390.493896 361.000000,387.902252 361.000000,384.781433 
	C355.948151,384.781433 351.565308,384.781433 346.960083,384.781433 
	C347.063354,382.611664 347.139465,381.012970 347.240662,378.886719 
	C350.944061,378.886719 354.340210,378.886719 358.200623,378.886719 
	C357.903625,376.210388 358.257477,372.672424 357.332703,372.298767 
	C354.285187,371.067230 350.774902,370.980927 347.339539,370.438629 
	C347.339539,368.753540 347.339539,367.044342 347.339539,364.779114 
	C351.719513,364.779114 355.772217,364.779114 359.713928,364.779114 
	C359.713928,361.951935 359.713928,359.689209 359.713928,357.341797 
	C352.057220,357.341797 344.690369,357.341797 337.000000,357.341797 
	C337.000000,369.787079 337.000000,381.893555 337.000000,394.000000 
	C334.958344,394.000000 332.916656,394.000000 330.437500,393.531342 
	C330.000000,381.173218 330.000000,369.283722 330.000000,357.361877 
	C326.358185,357.361877 323.321259,357.361877 320.000000,357.361877 
	C320.000000,369.814270 320.000000,381.907135 320.000000,394.000000 
	C316.969391,394.000000 313.938812,394.000000 310.610168,393.662292 
	C314.954132,390.895172 315.391266,388.483917 312.146729,383.205170 
	C305.699310,386.913300 302.508636,386.942444 298.824036,383.326843 
	C295.814178,380.373322 294.699524,373.510071 296.874115,369.491119 
	C300.845337,362.151855 306.810547,365.338562 312.507294,367.191467 
	C312.997375,364.111206 313.426605,361.413177 313.850494,358.748810 
	C305.324463,352.894531 289.467804,355.499481 286.111023,369.132385 
	C283.513306,379.682587 287.012115,387.237366 297.000000,394.000000 
	C289.645752,394.000000 282.291504,394.000000 274.603577,393.678619 
	C281.982025,389.535309 284.645844,383.109711 279.950806,376.751587 
	C277.605865,373.576019 272.778717,372.297394 269.256073,369.894287 
	C267.940155,368.996643 267.141113,367.341309 266.106415,366.031433 
	C267.791840,365.553009 269.540710,364.533020 271.148041,364.721344 
	C273.646759,365.014069 276.049194,366.128693 278.711334,366.963593 
	C279.229736,363.957214 279.691284,361.280609 280.413116,357.094543 
	C274.387329,357.059875 269.136566,356.740601 263.930115,357.087036 
	C259.395233,357.388763 256.980255,360.735901 256.198853,364.862701 
	C255.405640,369.052124 255.972229,373.187195 260.155243,375.623291 
	C262.963074,377.258484 266.106903,378.335388 268.840454,380.071350 
	C270.168121,380.914490 270.899506,382.696594 271.900818,384.053619 
	C270.380219,384.700470 268.905548,385.544769 267.320251,385.913330 
	C266.490540,386.106171 265.459747,385.485443 264.531464,385.194794 
	C256.847107,382.788940 256.847931,382.786316 255.563599,391.321716 
	C257.656677,392.192657 259.828339,393.096313 262.000000,394.000000 
	C250.979111,394.000000 239.958206,394.000000 228.468658,393.535095 
	C228.029099,386.350494 227.370422,379.668793 231.749527,373.583649 
	C235.317566,368.625549 237.958374,363.000153 241.095581,357.521759 
	C231.096176,356.101471 231.126236,356.117035 226.827911,364.420105 
	C225.890244,366.231415 224.653519,367.887909 223.464935,369.756561 
	C220.766953,364.999359 218.205170,360.482269 215.735718,356.128021 
	C212.181641,356.775055 209.115967,357.333160 205.464462,357.997925 
	C211.695847,369.879578 220.764969,379.965454 218.000000,394.000000 
	C212.311966,394.000000 206.623917,394.000000 200.650238,393.653015 
	C202.210129,393.057251 204.055649,392.808411 206.228394,392.515503 
	C203.131516,387.698700 200.357178,383.383545 197.555786,379.026306 
	C202.643555,376.125671 204.281754,371.813995 203.807907,367.086853 
	C203.296234,361.982208 200.108185,357.884003 194.951752,357.259796 
	C188.809982,356.516296 182.509415,357.084686 176.000000,357.084686 
	C176.000000,369.810547 176.000000,381.905273 176.000000,394.000000 
	C172.969406,394.000000 169.938812,394.000000 166.645218,393.647430 
	C168.160919,393.093445 169.939636,392.892029 171.962814,392.662964 
	C171.807709,391.657837 171.810455,390.842560 171.550949,390.121735 
	C168.731064,382.289276 165.803574,374.495056 163.036987,366.644043 
	C159.525024,356.677917 159.577301,356.656830 149.300217,357.082001 
	C148.986755,357.094940 148.681000,357.293457 148.393173,357.397644 
	C147.383438,360.349121 146.370575,363.280060 145.377594,366.217743 
	C142.247711,375.477142 139.125290,384.739044 136.000000,394.000000 
	C133.299988,394.000000 130.599976,394.000000 127.633461,393.652283 
	C129.154724,393.111847 130.942474,392.919128 133.421707,392.651886 
	C131.331039,389.246429 129.778076,385.981323 127.542107,383.281921 
	C125.311646,380.589142 125.112869,378.714142 127.952942,376.487213 
	C131.994446,373.318176 131.674515,368.674835 130.634384,364.590668 
	C129.568207,360.404266 126.068451,357.500946 121.669266,357.153107 
	C115.938354,356.699982 110.144569,357.042297 104.000000,357.042297 
	C104.000000,369.747650 104.000000,381.873840 104.000000,394.000000 
	C98.645073,394.000000 93.290138,394.000000 87.641617,393.657776 
	C98.525795,391.998810 101.156250,384.426056 94.125381,373.728882 
	C94.644516,372.724915 95.193199,371.718048 95.693382,370.687561 
	C98.763458,364.362823 95.669418,357.881989 88.680626,357.163422 
	C82.971741,356.576477 77.154442,357.044006 71.000000,357.044006 
	C71.000000,369.742645 71.000000,381.871307 71.000000,394.000000 
	C68.958336,394.000000 66.916664,394.000000 64.437500,393.531342 
	C64.000000,381.173218 64.000000,369.283752 64.000000,357.361877 
	C60.358192,357.361877 57.321285,357.361877 54.000000,357.361877 
	C54.000000,369.814301 54.000000,381.907135 54.000000,394.000000 
	C52.933331,394.000000 51.866661,394.000000 50.380760,393.592957 
	C50.172840,384.028412 43.842575,384.248016 36.956635,385.176971 
	C36.956635,375.469940 36.956635,366.435699 36.956635,357.356354 
	C33.370785,357.356354 30.333071,357.356354 27.000000,357.356354 
	C27.000000,369.806793 27.000000,381.903412 27.000000,394.000000 
	C18.348227,394.000000 9.696451,394.000000 1.000000,394.000000 
	C1.000000,317.979126 1.000000,241.958221 1.462638,165.468658 
	C164.283524,165.000000 326.641754,165.000000 489.000000,165.000000 
M176.974152,302.170197 
	C175.004730,296.460815 173.113083,290.722382 171.001923,285.065887 
	C170.566345,283.898804 169.383743,282.259674 168.423767,282.172089 
	C164.711639,281.833466 160.950287,282.034515 157.273483,282.034515 
	C157.273483,294.714630 157.273483,306.633606 157.273483,318.654541 
	C160.265900,318.654541 162.974030,318.654541 166.084000,318.654541 
	C166.084000,312.503845 166.084000,306.686462 166.084000,300.869110 
	C168.214661,305.255005 169.840118,309.665466 171.034363,314.189789 
	C172.045807,318.021545 174.041275,319.782196 178.067612,319.031128 
	C179.171844,318.825165 180.347061,318.999817 181.506775,318.999817 
	C183.485382,312.692444 185.363083,306.706696 187.240784,300.720917 
	C187.562363,300.758698 187.883926,300.796478 188.205505,300.834259 
	C188.205505,306.828369 188.205505,312.822449 188.205505,318.718811 
	C191.702637,318.718811 194.634659,318.718811 197.661621,318.718811 
	C197.661621,306.398651 197.661621,294.361816 197.661621,282.000000 
	C195.186295,282.000000 193.002182,282.277374 190.916382,281.942444 
	C186.522171,281.236938 184.318787,282.939880 183.273972,287.244141 
	C182.160400,291.831818 180.486710,296.289490 178.921585,300.756256 
	C178.631226,301.584930 177.695892,302.187622 176.974152,302.170197 
M334.308685,282.000000 
	C332.696381,282.000000 331.084045,282.000000 329.305725,282.000000 
	C329.305725,294.555145 329.305725,306.587463 329.305725,318.622406 
	C332.329742,318.622406 335.037445,318.622406 338.149902,318.622406 
	C338.149902,312.388275 338.149902,306.522614 338.149902,299.266083 
	C341.960876,304.992859 345.444275,309.328217 347.916382,314.178955 
	C350.752319,319.743591 354.887909,319.539917 359.757446,318.571564 
	C359.757446,306.334351 359.757446,294.425446 359.757446,282.309052 
	C356.803925,282.309052 354.096832,282.309052 350.762817,282.309052 
	C350.762817,288.211639 350.762817,293.821381 350.762817,300.693817 
	C346.739044,294.597839 343.667633,289.575500 340.169647,284.870209 
	C339.120514,283.458984 336.881744,282.932068 334.308685,282.000000 
M447.975861,317.174744 
	C447.975861,305.586090 447.975861,293.997467 447.975861,282.360809 
	C444.701233,282.360809 441.994415,282.360809 438.883301,282.360809 
	C438.883301,288.251343 438.883301,293.792175 438.883301,300.904572 
	C435.595764,295.839355 432.993835,292.163422 430.740479,288.285004 
	C426.791443,281.488068 425.564789,280.880707 417.377319,282.661926 
	C417.377319,294.708801 417.377319,306.745117 417.377319,318.726898 
	C420.359619,318.726898 422.955536,318.726898 425.956085,318.726898 
	C425.956085,312.262512 425.956085,306.053131 425.956085,298.489868 
	C429.909821,304.670593 433.093079,309.719360 436.351196,314.719360 
	C439.475677,319.514252 441.640991,320.115448 447.975861,317.174744 
M50.000000,304.494904 
	C50.000000,297.081055 50.000000,289.667206 50.000000,282.248840 
	C46.690552,282.248840 44.095684,282.248840 40.896351,282.248840 
	C40.896351,288.113953 40.896351,293.758209 40.896351,299.402435 
	C38.721256,297.508759 37.438461,295.468597 36.125992,293.447693 
	C34.790531,291.391388 33.419945,289.357910 32.075077,287.307648 
	C28.095816,281.241211 26.684822,280.743958 19.263531,282.790161 
	C19.263531,294.711273 19.263531,306.620880 19.263531,318.668121 
	C22.241064,318.668121 24.948231,318.668121 28.086002,318.668121 
	C28.086002,312.168884 28.086002,305.987671 28.086002,298.571167 
	C31.711126,304.125519 34.805405,308.499237 37.511433,313.101227 
	C41.297386,319.539764 41.884457,319.924255 50.000000,318.291931 
	C50.000000,314.081238 50.000000,309.786316 50.000000,304.494904 
M455.000000,311.428375 
	C455.000000,313.852814 455.000000,316.277283 455.000000,319.000000 
	C459.502502,319.000000 463.325562,319.220734 467.115448,318.959747 
	C479.922699,318.077850 486.323547,314.521576 487.688202,301.978058 
	C488.358765,295.814667 486.949280,289.389984 480.823212,285.209869 
	C472.723816,279.683289 463.926331,282.967438 455.000000,281.892639 
	C455.000000,291.878326 455.000000,301.163269 455.000000,311.428375 
M177.028610,218.226883 
	C177.028610,214.612228 177.028610,210.997589 177.028610,207.375610 
	C173.350998,207.375610 170.304626,207.375610 167.272339,207.375610 
	C167.272339,219.683716 167.272339,231.614517 167.272339,243.650574 
	C170.598877,243.650574 173.645309,243.650574 177.089752,243.650574 
	C177.089752,238.706268 177.089752,234.099594 177.089752,229.323730 
	C180.880478,229.323730 184.259781,229.323730 188.212250,229.323730 
	C188.212250,234.366608 188.212250,239.094513 188.212250,243.702271 
	C191.728836,243.702271 194.664505,243.702271 197.629593,243.702271 
	C197.629593,231.349167 197.629593,219.296722 197.629593,207.271469 
	C194.318665,207.271469 191.385513,207.271469 187.884399,207.271469 
	C187.884399,211.588791 187.884399,215.654083 187.884399,220.398758 
	C183.893494,219.934021 180.530518,219.542404 177.028610,218.226883 
M246.885834,237.532135 
	C251.450607,244.280090 262.772064,246.284882 270.323761,242.249420 
	C277.584595,238.369370 281.174896,225.376923 277.196838,216.507950 
	C271.989380,204.898056 257.429840,201.971741 248.547668,210.950668 
	C242.185715,217.381927 241.445755,226.467346 246.885834,237.532135 
M344.487335,206.842316 
	C341.273315,206.768326 337.865326,205.963150 334.881012,206.754913 
	C325.222687,209.317337 321.190582,215.492294 322.118683,227.555222 
	C323.269348,242.510468 334.489410,246.849579 346.842560,242.894043 
	C359.032257,238.990860 359.261047,222.119934 354.796387,214.659927 
	C352.832520,211.378479 348.543671,209.488449 344.487335,206.842316 
M206.873108,213.514664 
	C205.915405,218.097260 204.116791,222.686951 204.155472,227.261124 
	C204.278366,241.791275 216.870667,247.208328 228.828949,242.891739 
	C237.024918,239.933228 239.134354,232.543076 239.024277,224.368469 
	C238.906799,215.643372 235.442627,209.887680 228.416153,207.201157 
	C220.654205,204.233459 212.670181,206.316605 206.873108,213.514664 
M312.175262,318.035065 
	C322.336243,314.977356 325.644806,301.343964 320.928101,289.987030 
	C317.844513,282.562408 307.000488,278.875458 297.966675,282.081055 
	C289.692810,285.016998 285.432922,297.224091 288.920898,307.979187 
	C291.816711,316.908630 300.262024,321.221100 312.175262,318.035065 
M109.317245,317.138092 
	C121.123909,310.316925 119.928864,292.053345 112.501732,285.336914 
	C105.288742,278.814178 93.577728,279.492310 87.446220,286.053894 
	C81.180260,292.759369 81.218460,307.308685 87.262268,313.824097 
	C93.541183,320.593018 100.974480,319.795776 109.317245,317.138092 
M124.000000,298.501770 
	C124.000000,305.260529 124.000000,312.019318 124.000000,318.733276 
	C127.340889,318.733276 129.941620,318.733276 133.292404,318.733276 
	C133.292404,314.372986 133.292404,310.264832 133.292404,306.156677 
	C136.636444,309.558624 138.692703,313.275879 141.255981,316.602448 
	C142.213455,317.845032 144.335068,318.733215 145.959000,318.787201 
	C148.165543,318.860596 150.403854,317.978333 153.227295,317.378754 
	C151.334305,314.280273 149.784729,311.031982 147.572617,308.325134 
	C145.402634,305.669891 145.067093,303.876007 147.895187,301.502686 
	C151.868881,298.167999 151.521576,293.867126 150.190659,289.277802 
	C148.901108,284.831085 145.658737,282.581970 141.677536,282.187408 
	C135.965454,281.621338 130.155457,282.043030 124.000000,282.043030 
	C124.000000,287.573639 124.000000,292.538513 124.000000,298.501770 
M393.539581,311.000000 
	C400.315063,309.237946 401.214081,314.438934 402.572754,319.234894 
	C405.870697,318.646667 408.871613,318.111450 411.814514,317.586578 
	C411.887634,316.760071 412.098816,316.206390 411.950958,315.776093 
	C408.284424,305.107788 404.812408,294.358948 400.606323,283.905884 
	C400.040924,282.500732 395.754242,282.226501 393.165436,282.133514 
	C391.497864,282.073639 388.683868,282.888947 388.260925,284.016327 
	C383.975616,295.439453 380.077423,307.007812 376.050903,318.592224 
	C381.924896,319.642212 387.045837,320.152679 388.205383,312.515625 
	C388.313599,311.802887 391.092133,311.495544 393.539581,311.000000 
M227.095490,316.240601 
	C229.967056,322.405029 234.281021,316.007874 238.898499,318.767242 
	C237.251556,314.074829 236.144165,310.914154 235.032944,307.754791 
	C232.328873,300.066681 229.649338,292.369812 226.907898,284.695007 
	C225.279190,280.135345 221.330811,282.184784 218.411423,282.185883 
	C216.914108,282.186462 214.622559,283.796814 214.051941,285.224152 
	C210.786758,293.391693 207.933762,301.723907 204.934158,309.997772 
	C203.913132,312.814056 202.872696,315.623291 201.699265,318.822479 
	C205.416992,318.822479 208.371979,318.822479 211.291138,318.822479 
	C214.673950,310.210114 214.673950,310.210114 225.568405,311.351410 
	C226.033524,312.680908 226.512985,314.051392 227.095490,316.240601 
M110.707680,227.927536 
	C111.018478,228.033524 111.360672,228.087570 111.635216,228.253540 
	C114.362747,229.902252 120.044533,229.891266 118.516701,234.221451 
	C117.058434,238.354492 112.437210,235.531189 109.353371,234.616821 
	C103.338844,232.833466 103.776245,232.731354 102.800011,238.890671 
	C102.242233,242.409760 104.611603,242.553406 106.280098,242.843750 
	C110.306931,243.544464 114.440620,243.960495 118.525032,243.916473 
	C123.473976,243.863159 127.565521,240.197510 128.775787,235.460144 
	C129.979156,230.749863 128.063858,225.799454 123.687553,223.256180 
	C121.321861,221.881348 118.499199,221.279419 116.173782,219.853928 
	C114.852371,219.043930 114.118240,217.275879 113.119637,215.939285 
	C114.826996,215.506027 116.593994,214.565689 118.227783,214.757843 
	C120.706131,215.049332 123.091927,216.127747 125.951721,217.005234 
	C126.397858,213.907501 126.783867,211.227310 127.152969,208.664551 
	C116.074371,204.823456 106.929512,206.121780 104.185043,211.640594 
	C101.061699,217.921265 103.109749,223.473923 110.707680,227.927536 
M133.965332,233.185455 
	C137.136017,241.511810 142.002502,244.234879 153.307922,243.998962 
	C160.130539,243.856583 163.625977,240.482864 159.164246,233.033096 
	C155.024506,235.471298 150.805267,237.898193 146.258667,233.762680 
	C143.061783,230.854843 141.567520,224.321793 143.574142,219.998413 
	C147.318024,211.931961 153.812866,215.517914 159.557785,217.013138 
	C160.046127,213.892593 160.447388,211.328568 160.847122,208.774231 
	C155.825272,205.858459 150.774704,205.424057 145.768204,206.612183 
	C134.302261,209.333221 131.010040,219.893066 133.965332,233.185455 
M67.188538,296.235474 
	C67.188538,294.301178 67.188538,292.366852 67.188538,289.878235 
	C71.601738,289.878235 75.666199,289.878235 79.764412,289.878235 
	C79.764412,287.046906 79.764412,284.783264 79.764412,282.301208 
	C72.155167,282.301208 64.782425,282.301208 57.346985,282.301208 
	C57.346985,294.638336 57.346985,306.671631 57.346985,318.579285 
	C60.747520,318.579285 63.791084,318.579285 67.216560,318.579285 
	C67.216560,313.895844 67.216560,309.632965 67.216560,304.861206 
	C70.987671,304.861206 74.373718,304.861206 77.735252,304.861206 
	C77.294113,301.964172 76.934166,299.600403 76.514320,296.843231 
	C73.484177,296.843231 70.678917,296.843231 67.188538,296.235474 
M380.445496,215.000000 
	C382.203857,215.000000 383.962219,215.000000 385.765198,215.000000 
	C385.765198,212.046463 385.765198,209.784515 385.765198,207.287933 
	C378.165894,207.287933 370.801483,207.287933 363.314362,207.287933 
	C363.314362,219.596268 363.314362,231.614807 363.314362,243.619080 
	C366.677704,243.619080 369.717224,243.619080 373.132782,243.619080 
	C373.132782,238.984573 373.132782,234.725311 373.132782,230.099625 
	C376.776031,230.099625 380.041168,230.099625 383.350952,230.099625 
	C382.437469,222.841385 382.437469,222.841385 373.311310,221.481110 
	C373.311310,219.462173 373.311310,217.421021 373.311310,215.000000 
	C375.578522,215.000000 377.540802,215.000000 380.445496,215.000000 
M255.461029,282.000000 
	C249.369766,282.000000 243.278503,282.000000 237.277969,282.000000 
	C237.277969,285.026245 237.277969,287.295563 237.277969,290.133759 
	C240.601044,290.133759 243.655304,290.133759 247.090500,290.133759 
	C247.090500,299.967041 247.090500,309.229309 247.090500,318.682373 
	C250.538452,318.682373 253.582657,318.682373 257.191406,318.682373 
	C257.191406,308.985138 257.191406,299.593445 257.191406,289.844543 
	C260.702484,289.844543 263.643707,289.844543 266.524567,289.844543 
	C267.521790,282.161316 267.395172,282.007111 260.439911,282.000214 
	C259.107697,281.998871 257.775513,282.000000 255.461029,282.000000 
M302.237305,244.000000 
	C303.706696,244.000000 305.176056,244.000000 306.328827,244.000000 
	C308.146576,233.078934 300.340363,234.985733 293.866486,234.879272 
	C293.866486,225.371964 293.866486,216.335724 293.866486,207.405258 
	C290.276947,207.405258 287.238342,207.405258 284.253510,207.405258 
	C284.253510,219.707062 284.253510,231.602127 284.253510,244.000000 
	C290.093597,244.000000 295.692932,244.000000 302.237305,244.000000 
M281.187744,318.817047 
	C281.187744,306.676422 281.187744,294.535828 281.187744,282.372314 
	C278.343231,282.372314 275.303589,282.372314 272.400208,282.372314 
	C272.400208,294.773193 272.400208,306.797913 272.400208,318.968231 
	C275.287354,318.968231 277.774841,318.968231 281.187744,318.817047 
M11.000000,304.494904 
	C11.000000,297.089203 11.000000,289.683502 11.000000,282.415771 
	C7.593407,282.415771 4.888056,282.415771 2.260518,282.415771 
	C2.260518,294.730103 2.260518,306.627197 2.260518,318.675842 
	C5.231483,318.675842 7.935818,318.675842 11.000000,318.675842 
	C11.000000,314.067932 11.000000,309.779663 11.000000,304.494904 
z"/>
<path fill="#FFFFFF" opacity="1.000000" stroke="none" 
	d="
M489.000000,92.000000 
	C489.000000,115.020897 489.000000,138.041794 488.537354,161.531342 
	C325.716461,162.000000 163.358231,162.000000 1.000000,162.000000 
	C1.000000,145.312439 1.000000,128.624878 1.331714,111.579315 
	C2.609273,111.858406 3.517758,112.561333 4.506661,113.122559 
	C15.903603,119.590584 28.723469,120.135139 41.195374,120.741402 
	C52.498405,121.290840 64.003288,120.325821 75.234444,118.729126 
	C82.001518,117.767090 88.645454,114.782234 94.835762,111.688103 
	C96.498589,110.856972 96.613388,106.311165 96.739258,103.439919 
	C96.772339,102.685219 94.186874,101.822411 92.811050,100.997345 
	C91.498276,100.210091 90.194832,99.407303 88.672615,98.480659 
	C77.652679,105.586395 32.937862,109.083160 7.203137,98.572899 
	C6.830016,101.636063 6.286615,105.006294 10.259216,105.897774 
	C20.108982,108.108124 29.975288,110.379456 39.949516,111.848335 
	C45.641750,112.686623 51.558548,112.000000 57.374233,112.000000 
	C47.345848,114.632027 37.290394,114.408737 27.131811,113.064583 
	C17.750626,111.823288 8.915029,109.318848 1.000000,104.000000 
	C1.000000,69.775070 1.000000,35.550137 1.000000,1.000000 
	C12.685551,1.000000 24.374117,1.000000 36.350391,1.346650 
	C28.094475,3.067039 20.544544,6.237258 15.080214,13.665346 
	C26.363674,10.179765 37.238556,9.121612 47.318615,16.424862 
	C44.509705,17.000000 41.735012,16.915491 38.966934,17.014956 
	C28.245979,17.400190 17.812195,19.171095 7.915152,23.533272 
	C4.774877,24.917364 3.145639,26.955860 4.413098,30.765551 
	C17.847958,21.750650 33.033962,21.094698 48.453403,20.921932 
	C63.858990,20.749319 78.614380,23.299856 93.169525,30.790260 
	C90.351028,22.403925 84.215981,13.709578 77.669350,10.047317 
	C71.390701,6.534957 64.578003,3.977246 58.000000,1.000000 
	C201.545502,1.000000 345.091003,1.000000 489.000000,1.000000 
	C489.000000,30.019882 489.000000,59.041283 488.592957,88.531357 
	C486.677002,89.596527 484.730133,89.788963 483.739075,90.863213 
	C480.401520,94.480949 477.604401,98.599930 474.242401,102.191925 
	C458.175995,119.357384 428.090393,119.738167 410.064575,102.411804 
	C395.171722,88.096832 389.962708,70.311966 392.918213,49.793663 
	C397.256195,19.678015 424.706390,2.950106 452.546631,10.829988 
	C464.498688,14.212891 473.181610,21.278114 478.258240,32.660934 
	C479.360382,35.132214 480.693604,36.955578 484.204010,35.264198 
	C483.694153,26.576271 483.184509,17.891567 482.708771,9.784972 
	C478.265564,9.493287 473.958252,10.094235 470.307373,8.817713 
	C454.600983,3.325974 438.716278,1.675951 422.381805,5.009460 
	C407.147705,8.118412 394.459381,15.419732 385.319397,28.201109 
	C376.141144,41.035965 372.864807,55.229473 374.832611,71.015434 
	C376.139984,81.503288 379.610016,90.911629 386.372070,98.704674 
	C403.844543,118.841171 426.609558,123.357574 451.840576,119.563553 
	C458.786407,118.519096 465.659180,116.581848 472.625000,116.229012 
	C476.837616,116.015633 478.923798,114.513893 480.440552,111.103104 
	C483.275787,104.727432 486.144958,98.366859 489.000000,92.000000 
M301.524658,65.059250 
	C302.275299,66.131172 302.896759,67.328331 303.796112,68.256119 
	C316.175079,81.026634 328.606720,93.746101 340.982361,106.519806 
	C342.577515,108.166283 343.721771,110.290047 345.439941,111.768456 
	C349.007904,114.838470 351.137146,120.835083 358.000000,118.414650 
	C358.000000,116.463417 358.000000,114.648048 358.000000,112.832680 
	C358.000000,82.340797 357.988129,51.848904 358.008301,21.357033 
	C358.013428,13.624911 360.143982,11.486111 367.876801,10.966562 
	C369.657318,10.846933 371.548584,10.615781 373.125549,9.875156 
	C374.100616,9.417220 374.578369,7.900352 375.734222,6.183109 
	C360.454926,6.183109 346.506348,6.183109 332.573242,6.183109 
	C332.211792,10.458423 332.625702,10.843290 337.540802,10.999743 
	C346.178406,11.274686 348.998932,14.179753 348.999512,22.812452 
	C349.000977,44.306732 349.004120,65.801010 348.990387,87.295280 
	C348.989532,88.671684 348.850739,90.048012 348.751404,91.879951 
	C338.975067,81.542343 329.748596,71.613464 320.331360,61.868935 
	C306.350952,47.402645 292.228607,33.073547 278.193604,18.659861 
	C277.290314,17.732208 276.677460,16.528530 275.827423,15.541104 
	C270.933411,9.856094 266.227814,5.083011 257.241760,5.733867 
	C243.318542,6.742322 229.268509,6.000000 215.272232,6.000000 
	C209.971481,6.000000 204.670731,6.000000 199.438828,6.000000 
	C198.587631,9.262950 199.239731,10.783957 202.523972,11.048512 
	C212.189743,11.827122 215.921158,15.337708 215.908157,24.886847 
	C215.882370,43.817532 215.811890,62.772717 214.813568,81.667770 
	C214.265167,92.047058 208.124725,99.730835 199.043350,105.035835 
	C190.323517,110.129623 180.838821,110.367920 171.230331,109.980400 
	C150.852112,109.158524 136.349976,96.160263 136.049728,74.891472 
	C135.805145,57.566204 135.999146,40.234730 136.000381,22.906008 
	C136.000977,14.560758 138.044800,12.365989 146.308792,10.887000 
	C148.385086,10.515411 152.136993,10.686389 150.558304,6.299055 
	C135.413345,6.299055 120.335022,6.299055 105.323082,6.299055 
	C104.290077,10.309581 106.791733,10.749622 109.439613,10.989236 
	C117.428658,11.712187 119.989014,14.516453 119.995407,22.711973 
	C120.009979,41.373661 119.626953,60.045330 120.124931,78.693733 
	C120.485962,92.213402 126.166054,103.543274 137.668503,111.237991 
	C154.094025,122.226074 172.222992,122.842140 190.685883,118.567368 
	C212.401398,113.539497 225.577927,96.541229 225.068298,73.812813 
	C224.713562,57.991650 224.798080,42.151623 225.149246,26.330296 
	C225.231812,22.609846 226.476227,18.491072 228.442337,15.339122 
	C231.173294,10.961030 240.076111,9.292349 245.714127,11.341246 
	C249.683548,12.783761 252.278259,14.637733 252.190231,20.077810 
	C251.767059,46.230667 251.730133,72.398308 252.134659,98.551758 
	C252.293350,108.812508 249.632645,113.932838 238.219162,113.125229 
	C237.949646,113.106163 237.657394,113.408524 237.057892,113.732994 
	C237.139084,114.972397 237.229309,116.349808 237.321518,117.757401 
	C251.323227,117.757401 264.924164,117.757401 278.684418,117.757401 
	C278.684418,116.131721 278.684418,114.751198 278.684418,112.995605 
	C276.091064,112.995605 273.777039,113.112579 271.478821,112.971672 
	C266.433014,112.662285 262.448547,109.465370 262.055756,105.199120 
	C261.556610,99.777679 261.084595,94.332085 261.046692,88.893799 
	C260.922394,71.066078 261.000000,53.236954 261.000000,35.408367 
	C261.000000,31.824274 261.000000,28.240183 261.000000,23.385572 
	C274.935394,37.715126 287.981018,51.129738 301.524658,65.059250 
M75.063332,36.912266 
	C75.376060,38.828156 75.952545,40.742970 75.960320,42.660095 
	C76.030533,59.966366 76.051552,77.273323 75.954819,94.579338 
	C75.937233,97.724724 76.886139,99.340469 80.224190,99.010628 
	C81.664772,98.868294 83.118523,98.859230 85.000000,98.768768 
	C85.000000,96.672668 85.000000,94.879761 85.000000,93.086845 
	C85.000000,76.778748 84.947624,60.470333 85.043419,44.162796 
	C85.062981,40.832333 84.884926,37.183372 86.135925,34.252266 
	C87.987549,29.913860 85.741676,28.638206 82.591331,28.081032 
	C72.140343,26.232656 61.685413,23.850500 51.142078,23.248856 
	C42.017418,22.728165 32.732311,24.044043 23.594053,25.166355 
	C19.310032,25.692495 15.156774,27.547407 11.056076,29.096189 
	C10.154119,29.436848 9.538205,30.973701 9.183955,32.085094 
	C9.061728,32.468559 10.302824,33.826607 10.636453,33.732296 
	C14.201043,32.724670 17.708427,31.514677 22.283751,30.015438 
	C22.354900,30.021765 23.860531,30.223383 25.371323,30.275581 
	C28.286345,30.376293 31.977928,27.197062 32.415062,27.403788 
	C37.788631,29.944992 42.797123,29.322449 47.910294,27.037600 
	C48.174797,26.919403 48.569630,27.047804 48.893131,27.113701 
	C51.948055,27.735983 55.025726,28.269159 58.048233,29.022921 
	C62.915131,30.236643 67.794327,31.447969 72.555077,33.006294 
	C73.695740,33.379665 74.390526,35.115173 75.063332,36.912266 
M37.000000,57.500061 
	C37.000000,49.142361 37.000000,40.784660 37.000000,32.507141 
	C34.021133,32.507141 30.566675,32.507141 28.000088,32.507141 
	C28.000088,35.773560 28.000088,38.380783 28.000088,40.988007 
	C28.000101,59.606491 28.048740,78.225220 27.954760,96.843231 
	C27.938082,100.147400 28.372921,102.122902 32.471542,102.118011 
	C36.502041,102.113205 37.084160,100.273308 37.050823,96.900154 
	C36.924328,84.101196 36.999954,71.300247 37.000000,57.500061 
M59.000000,60.500038 
	C59.000179,72.801521 59.090794,85.104103 58.942406,97.403793 
	C58.900856,100.847801 60.034157,102.083588 63.533398,102.095657 
	C67.113625,102.107994 68.069084,100.699387 68.052895,97.336784 
	C67.948654,75.687607 67.999596,54.037678 67.999596,32.535934 
	C64.978760,32.535934 61.537449,32.535934 59.000000,32.535934 
	C59.000000,41.858013 59.000000,50.679047 59.000000,60.500038 
M11.000000,49.577145 
	C11.000000,65.972847 11.000000,82.368546 11.000000,98.735634 
	C14.338552,98.735634 16.936563,98.735634 20.220669,98.735634 
	C20.220669,77.816826 20.220669,57.153820 20.220669,36.436417 
	C17.130924,36.436417 13.645002,36.436417 11.000000,36.436417 
	C11.000000,40.794250 11.000000,44.700638 11.000000,49.577145 
M53.013233,92.108330 
	C53.013233,86.480698 53.013233,80.853058 53.013233,75.216469 
	C50.231026,75.216469 46.305317,75.216469 41.246155,75.216469 
	C43.009129,77.271423 44.183014,78.639725 45.356903,80.008034 
	C44.900341,79.902939 44.443783,79.797836 43.987221,79.692741 
	C43.347561,85.647621 42.707897,91.602501 42.058922,97.644104 
	C46.369926,97.644104 50.083225,97.644104 54.316788,97.644104 
	C53.820148,95.789268 53.449612,94.405396 53.013233,92.108330 
z"/>
<path fill="#469CD4" opacity="1.000000" stroke="none" 
	d="
M489.000000,91.625000 
	C486.144958,98.366859 483.275787,104.727432 480.440552,111.103104 
	C478.923798,114.513893 476.837616,116.015633 472.625000,116.229012 
	C465.659180,116.581848 458.786407,118.519096 451.840576,119.563553 
	C426.609558,123.357574 403.844543,118.841171 386.372070,98.704674 
	C379.610016,90.911629 376.139984,81.503288 374.832611,71.015434 
	C372.864807,55.229473 376.141144,41.035965 385.319397,28.201109 
	C394.459381,15.419732 407.147705,8.118412 422.381805,5.009460 
	C438.716278,1.675951 454.600983,3.325974 470.307373,8.817713 
	C473.958252,10.094235 478.265564,9.493287 482.708771,9.784972 
	C483.184509,17.891567 483.694153,26.576271 484.204010,35.264198 
	C480.693604,36.955578 479.360382,35.132214 478.258240,32.660934 
	C473.181610,21.278114 464.498688,14.212891 452.546631,10.829988 
	C424.706390,2.950106 397.256195,19.678015 392.918213,49.793663 
	C389.962708,70.311966 395.171722,88.096832 410.064575,102.411804 
	C428.090393,119.738167 458.175995,119.357384 474.242401,102.191925 
	C477.604401,98.599930 480.401520,94.480949 483.739075,90.863213 
	C484.730133,89.788963 486.677002,89.596527 488.592957,89.000015 
	C489.000000,89.750000 489.000000,90.500000 489.000000,91.625000 
z"/>
<path fill="#469CD4" opacity="1.000000" stroke="none" 
	d="
M1.000000,162.375000 
	C163.358231,162.000000 325.716461,162.000000 488.537354,162.000000 
	C489.000000,162.750000 489.000000,163.500000 489.000000,164.625000 
	C326.641754,165.000000 164.283524,165.000000 1.462638,165.000000 
	C1.000000,164.250000 1.000000,163.500000 1.000000,162.375000 
z"/>
<path fill="#469CD4" opacity="1.000000" stroke="none" 
	d="
M1.000000,104.437500 
	C8.915029,109.318848 17.750626,111.823288 27.131811,113.064583 
	C37.290394,114.408737 47.345848,114.632027 57.374233,112.000000 
	C51.558548,112.000000 45.641750,112.686623 39.949516,111.848335 
	C29.975288,110.379456 20.108982,108.108124 10.259216,105.897774 
	C6.286615,105.006294 6.830016,101.636063 7.203137,98.572899 
	C32.937862,109.083160 77.652679,105.586395 88.672615,98.480659 
	C90.194832,99.407303 91.498276,100.210091 92.811050,100.997345 
	C94.186874,101.822411 96.772339,102.685219 96.739258,103.439919 
	C96.613388,106.311165 96.498589,110.856972 94.835762,111.688103 
	C88.645454,114.782234 82.001518,117.767090 75.234444,118.729126 
	C64.003288,120.325821 52.498405,121.290840 41.195374,120.741402 
	C28.723469,120.135139 15.903603,119.590584 4.506661,113.122559 
	C3.517758,112.561333 2.609273,111.858406 1.331714,111.110657 
	C1.000000,108.958336 1.000000,106.916664 1.000000,104.437500 
z"/>
<path fill="#469CD4" opacity="1.000000" stroke="none" 
	d="
M57.531467,1.000000 
	C64.578003,3.977246 71.390701,6.534957 77.669350,10.047317 
	C84.215981,13.709578 90.351028,22.403925 93.169525,30.790260 
	C78.614380,23.299856 63.858990,20.749319 48.453403,20.921932 
	C33.033962,21.094698 17.847958,21.750650 4.413098,30.765551 
	C3.145639,26.955860 4.774877,24.917364 7.915152,23.533272 
	C17.812195,19.171095 28.245979,17.400190 38.966934,17.014956 
	C41.735012,16.915491 44.509705,17.000000 47.318615,16.424862 
	C37.238556,9.121612 26.363674,10.179765 15.080214,13.665346 
	C20.544544,6.237258 28.094475,3.067039 36.819050,1.346650 
	C43.687645,1.000000 50.375290,1.000000 57.531467,1.000000 
z"/>
<path fill="#469CD4" opacity="1.000000" stroke="none" 
	d="
M367.449982,394.000000 
	C367.000000,381.881470 367.000000,369.762909 367.000000,357.723969 
	C375.575012,355.936401 375.864288,356.072784 380.467834,362.905426 
	C383.025513,366.701538 385.657959,370.447266 388.734314,374.908295 
	C388.734314,368.767395 388.734314,363.288788 388.734314,357.407501 
	C391.904358,357.407501 394.610657,357.407501 398.000000,357.407501 
	C398.000000,369.230713 398.000000,381.146698 398.000000,393.531342 
	C395.299988,394.000000 392.599976,394.000000 389.438354,393.640076 
	C384.894287,387.054535 380.811890,380.828888 376.000000,373.490845 
	C376.000000,381.372772 376.000000,387.686371 376.000000,394.000000 
	C373.299988,394.000000 370.599976,394.000000 367.449982,394.000000 
z"/>
<path fill="#469CD4" opacity="1.000000" stroke="none" 
	d="
M176.454102,394.000000 
	C176.000000,381.905273 176.000000,369.810547 176.000000,357.084686 
	C182.509415,357.084686 188.809982,356.516296 194.951752,357.259796 
	C200.108185,357.884003 203.296234,361.982208 203.807907,367.086853 
	C204.281754,371.813995 202.643555,376.125671 197.555786,379.026306 
	C200.357178,383.383545 203.131516,387.698700 206.228394,392.515503 
	C204.055649,392.808411 202.210129,393.057251 200.182312,393.653015 
	C198.611115,394.000000 197.222214,394.000000 195.308746,393.665497 
	C192.251328,389.205444 189.718491,385.079895 187.185669,380.954346 
	C186.790436,381.090149 186.395218,381.225952 186.000000,381.361755 
	C186.000000,385.574493 186.000000,389.787262 186.000000,394.000000 
	C182.969406,394.000000 179.938812,394.000000 176.454102,394.000000 
M186.012299,365.955322 
	C186.012299,368.547607 186.012299,371.139893 186.012299,375.537140 
	C189.351166,373.444946 191.746078,372.365051 193.482178,370.627014 
	C194.085632,370.022888 193.504089,366.882935 192.687439,366.481812 
	C190.729340,365.520142 188.310837,365.495880 186.012299,365.955322 
z"/>
<path fill="#469CD4" opacity="1.000000" stroke="none" 
	d="
M71.466858,394.000000 
	C71.000000,381.871307 71.000000,369.742645 71.000000,357.044006 
	C77.154442,357.044006 82.971741,356.576477 88.680626,357.163422 
	C95.669418,357.881989 98.763458,364.362823 95.693382,370.687561 
	C95.193199,371.718048 94.644516,372.724915 94.125381,373.728882 
	C101.156250,384.426056 98.525795,391.998810 87.174011,393.657776 
	C81.977905,394.000000 76.955818,394.000000 71.466858,394.000000 
M88.854317,382.408905 
	C87.990959,378.140167 85.094429,377.615845 81.274574,378.271973 
	C81.274574,380.818481 81.274574,383.227112 81.274574,387.550842 
	C84.350700,385.627228 86.387024,384.353851 88.854317,382.408905 
M82.443176,370.956177 
	C85.225487,371.254120 88.099144,370.354584 87.647316,367.471161 
	C87.391647,365.839661 84.072052,364.688263 82.132484,363.320648 
	C81.703445,363.753693 81.274406,364.186768 80.845367,364.619843 
	C81.102020,366.674225 81.358665,368.728577 82.443176,370.956177 
z"/>
<path fill="#469CD4" opacity="1.000000" stroke="none" 
	d="
M104.454109,394.000000 
	C104.000000,381.873840 104.000000,369.747650 104.000000,357.042297 
	C110.144569,357.042297 115.938354,356.699982 121.669266,357.153107 
	C126.068451,357.500946 129.568207,360.404266 130.634384,364.590668 
	C131.674515,368.674835 131.994446,373.318176 127.952942,376.487213 
	C125.112869,378.714142 125.311646,380.589142 127.542107,383.281921 
	C129.778076,385.981323 131.331039,389.246429 133.421707,392.651886 
	C130.942474,392.919128 129.154724,393.111847 127.183487,393.652283 
	C125.611107,394.000000 124.222221,394.000000 122.405151,393.636414 
	C119.632240,389.301880 117.287498,385.330902 114.942757,381.359924 
	C114.628502,381.475891 114.314255,381.591858 114.000000,381.707825 
	C114.000000,385.805206 114.000000,389.902618 114.000000,394.000000 
	C110.969406,394.000000 107.938812,394.000000 104.454109,394.000000 
M118.933151,365.483154 
	C117.495285,364.912903 116.057419,364.342682 114.208328,363.609344 
	C114.208328,367.409180 114.208328,370.485718 114.208328,374.644104 
	C116.700851,373.553528 119.367599,373.190186 120.328262,371.715454 
	C121.115250,370.507385 119.870430,367.975769 118.933151,365.483154 
z"/>
<path fill="#469CD4" opacity="1.000000" stroke="none" 
	d="
M136.454102,394.000000 
	C139.125290,384.739044 142.247711,375.477142 145.377594,366.217743 
	C146.370575,363.280060 147.383438,360.349121 148.393173,357.397644 
	C148.681000,357.293457 148.986755,357.094940 149.300217,357.082001 
	C159.577301,356.656830 159.525024,356.677917 163.036987,366.644043 
	C165.803574,374.495056 168.731064,382.289276 171.550949,390.121735 
	C171.810455,390.842560 171.807709,391.657837 171.962814,392.662964 
	C169.939636,392.892029 168.160919,393.093445 166.191101,393.647430 
	C164.933334,394.000000 163.866653,394.000000 162.384720,393.610352 
	C161.114105,390.819824 160.258743,388.418915 159.450790,386.151031 
	C146.210144,386.070160 148.551910,384.107788 146.000000,394.000000 
	C142.969406,394.000000 139.938812,394.000000 136.454102,394.000000 
M155.115463,373.371918 
	C154.654419,372.032990 154.193375,370.694031 153.532578,368.774994 
	C152.497910,372.049255 151.677490,374.645477 150.721527,377.670654 
	C152.923981,377.670654 154.658218,377.670654 156.525650,377.670654 
	C156.190231,376.461365 155.851166,375.238953 155.115463,373.371918 
z"/>
<path fill="#469CD4" opacity="1.000000" stroke="none" 
	d="
M337.468628,394.000000 
	C337.000000,381.893555 337.000000,369.787079 337.000000,357.341797 
	C344.690369,357.341797 352.057220,357.341797 359.713928,357.341797 
	C359.713928,359.689209 359.713928,361.951935 359.713928,364.779114 
	C355.772217,364.779114 351.719513,364.779114 347.339539,364.779114 
	C347.339539,367.044342 347.339539,368.753540 347.339539,370.438629 
	C350.774902,370.980927 354.285187,371.067230 357.332703,372.298767 
	C358.257477,372.672424 357.903625,376.210388 358.200623,378.886719 
	C354.340210,378.886719 350.944061,378.886719 347.240662,378.886719 
	C347.139465,381.012970 347.063354,382.611664 346.960083,384.781433 
	C351.565308,384.781433 355.948151,384.781433 361.000000,384.781433 
	C361.000000,387.902252 361.000000,390.493896 361.000000,393.542786 
	C353.312408,394.000000 345.624847,394.000000 337.468628,394.000000 
z"/>
<path fill="#469CD4" opacity="1.000000" stroke="none" 
	d="
M438.468628,394.000000 
	C438.023132,382.177338 438.044006,370.354675 438.082123,358.532043 
	C438.083099,358.228943 438.273254,357.926392 438.479553,357.313721 
	C445.763367,357.313721 453.142975,357.313721 460.761841,357.313721 
	C460.761841,359.782928 460.761841,362.049286 460.761841,364.883179 
	C456.658813,364.883179 452.588104,364.883179 448.242188,364.883179 
	C448.139435,367.035309 448.062866,368.639740 447.967285,370.641632 
	C452.380371,372.084717 461.125336,367.902100 458.581818,378.848999 
	C455.399994,378.848999 451.996948,378.848999 448.304169,378.848999 
	C448.304169,381.103851 448.304169,382.815582 448.304169,384.929840 
	C452.773865,384.929840 457.048584,384.929840 462.000000,384.929840 
	C462.000000,387.894440 462.000000,390.489990 462.000000,393.542786 
	C454.312408,394.000000 446.624847,394.000000 438.468628,394.000000 
z"/>
<path fill="#469CD4" opacity="1.000000" stroke="none" 
	d="
M262.460632,394.000000 
	C259.828339,393.096313 257.656677,392.192657 255.563599,391.321716 
	C256.847931,382.786316 256.847107,382.788940 264.531464,385.194794 
	C265.459747,385.485443 266.490540,386.106171 267.320251,385.913330 
	C268.905548,385.544769 270.380219,384.700470 271.900818,384.053619 
	C270.899506,382.696594 270.168121,380.914490 268.840454,380.071350 
	C266.106903,378.335388 262.963074,377.258484 260.155243,375.623291 
	C255.972229,373.187195 255.405640,369.052124 256.198853,364.862701 
	C256.980255,360.735901 259.395233,357.388763 263.930115,357.087036 
	C269.136566,356.740601 274.387329,357.059875 280.413116,357.094543 
	C279.691284,361.280609 279.229736,363.957214 278.711334,366.963593 
	C276.049194,366.128693 273.646759,365.014069 271.148041,364.721344 
	C269.540710,364.533020 267.791840,365.553009 266.106415,366.031433 
	C267.141113,367.341309 267.940155,368.996643 269.256073,369.894287 
	C272.778717,372.297394 277.605865,373.576019 279.950806,376.751587 
	C284.645844,383.109711 281.982025,389.535309 274.134949,393.678619 
	C270.307098,394.000000 266.614166,394.000000 262.460632,394.000000 
z"/>
<path fill="#469CD4" opacity="1.000000" stroke="none" 
	d="
M415.463196,394.000000 
	C403.150360,385.970093 400.391479,374.995148 406.895325,363.189697 
	C410.494415,356.656860 423.485596,353.549164 430.668335,358.030121 
	C431.446198,358.515381 431.872437,360.197296 431.795135,361.276367 
	C431.669891,363.025330 430.992279,364.734711 430.406555,367.009735 
	C425.165222,365.769226 418.801056,361.861298 415.201630,369.185577 
	C413.112335,373.436951 412.628937,378.492798 416.219849,382.665833 
	C420.741791,387.920868 425.858246,385.588226 430.775085,383.272614 
	C433.222961,389.102173 432.519928,391.787140 428.169891,393.658203 
	C423.975464,394.000000 419.950897,394.000000 415.463196,394.000000 
z"/>
<path fill="#469CD4" opacity="1.000000" stroke="none" 
	d="
M297.463196,394.000000 
	C287.012115,387.237366 283.513306,379.682587 286.111023,369.132385 
	C289.467804,355.499481 305.324463,352.894531 313.850494,358.748810 
	C313.426605,361.413177 312.997375,364.111206 312.507294,367.191467 
	C306.810547,365.338562 300.845337,362.151855 296.874115,369.491119 
	C294.699524,373.510071 295.814178,380.373322 298.824036,383.326843 
	C302.508636,386.942444 305.699310,386.913300 312.146729,383.205170 
	C315.391266,388.483917 314.954132,390.895172 310.156067,393.662292 
	C305.975464,394.000000 301.950897,394.000000 297.463196,394.000000 
z"/>
<path fill="#469CD4" opacity="1.000000" stroke="none" 
	d="
M218.454102,394.000000 
	C220.764969,379.965454 211.695847,369.879578 205.464462,357.997925 
	C209.115967,357.333160 212.181641,356.775055 215.735718,356.128021 
	C218.205170,360.482269 220.766953,364.999359 223.464935,369.756561 
	C224.653519,367.887909 225.890244,366.231415 226.827911,364.420105 
	C231.126236,356.117035 231.096176,356.101471 241.095581,357.521759 
	C237.958374,363.000153 235.317566,368.625549 231.749527,373.583649 
	C227.370422,379.668793 228.029099,386.350494 228.000000,393.535095 
	C224.969406,394.000000 221.938812,394.000000 218.454102,394.000000 
z"/>
<path fill="#469CD4" opacity="1.000000" stroke="none" 
	d="
M27.468622,394.000000 
	C27.000000,381.903412 27.000000,369.806793 27.000000,357.356354 
	C30.333071,357.356354 33.370785,357.356354 36.956635,357.356354 
	C36.956635,366.435699 36.956635,375.469940 36.956635,385.176971 
	C43.842575,384.248016 50.172840,384.028412 49.980762,393.592957 
	C42.645748,394.000000 35.291496,394.000000 27.468622,394.000000 
z"/>
<path fill="#469CD4" opacity="1.000000" stroke="none" 
	d="
M320.454102,394.000000 
	C320.000000,381.907135 320.000000,369.814270 320.000000,357.361877 
	C323.321259,357.361877 326.358185,357.361877 330.000000,357.361877 
	C330.000000,369.283722 330.000000,381.173218 330.000000,393.531342 
	C326.969391,394.000000 323.938812,394.000000 320.454102,394.000000 
z"/>
<path fill="#469CD4" opacity="1.000000" stroke="none" 
	d="
M54.454109,394.000000 
	C54.000000,381.907135 54.000000,369.814301 54.000000,357.361877 
	C57.321285,357.361877 60.358192,357.361877 64.000000,357.361877 
	C64.000000,369.283752 64.000000,381.173218 64.000000,393.531342 
	C60.969406,394.000000 57.938812,394.000000 54.454109,394.000000 
z"/>
<path fill="#FFFFFF" opacity="1.000000" stroke="none" 
	d="
M376.463196,394.000000 
	C376.000000,387.686371 376.000000,381.372772 376.000000,373.490845 
	C380.811890,380.828888 384.894287,387.054535 388.988342,393.640076 
	C384.975464,394.000000 380.950897,394.000000 376.463196,394.000000 
z"/>
<path fill="#FFFFFF" opacity="1.000000" stroke="none" 
	d="
M146.466858,394.000000 
	C148.551910,384.107788 146.210144,386.070160 159.450790,386.151031 
	C160.258743,388.418915 161.114105,390.819824 161.984726,393.610352 
	C156.977905,394.000000 151.955811,394.000000 146.466858,394.000000 
z"/>
<path fill="#FFFFFF" opacity="1.000000" stroke="none" 
	d="
M186.449982,394.000000 
	C186.000000,389.787262 186.000000,385.574493 186.000000,381.361755 
	C186.395218,381.225952 186.790436,381.090149 187.185669,380.954346 
	C189.718491,385.079895 192.251328,389.205444 194.892075,393.665497 
	C192.299988,394.000000 189.599976,394.000000 186.449982,394.000000 
z"/>
<path fill="#FFFFFF" opacity="1.000000" stroke="none" 
	d="
M114.444168,394.000000 
	C114.000000,389.902618 114.000000,385.805206 114.000000,381.707825 
	C114.314255,381.591858 114.628502,381.475891 114.942757,381.359924 
	C117.287498,385.330902 119.632240,389.301880 121.988495,393.636414 
	C119.629440,394.000000 117.258888,394.000000 114.444168,394.000000 
z"/>
<path fill="#469CD4" opacity="1.000000" stroke="none" 
	d="
M177.016205,302.532410 
	C177.695892,302.187622 178.631226,301.584930 178.921585,300.756256 
	C180.486710,296.289490 182.160400,291.831818 183.273972,287.244141 
	C184.318787,282.939880 186.522171,281.236938 190.916382,281.942444 
	C193.002182,282.277374 195.186295,282.000000 197.661621,282.000000 
	C197.661621,294.361816 197.661621,306.398651 197.661621,318.718811 
	C194.634659,318.718811 191.702637,318.718811 188.205505,318.718811 
	C188.205505,312.822449 188.205505,306.828369 188.205505,300.834259 
	C187.883926,300.796478 187.562363,300.758698 187.240784,300.720917 
	C185.363083,306.706696 183.485382,312.692444 181.506775,318.999817 
	C180.347061,318.999817 179.171844,318.825165 178.067612,319.031128 
	C174.041275,319.782196 172.045807,318.021545 171.034363,314.189789 
	C169.840118,309.665466 168.214661,305.255005 166.084000,300.869110 
	C166.084000,306.686462 166.084000,312.503845 166.084000,318.654541 
	C162.974030,318.654541 160.265900,318.654541 157.273483,318.654541 
	C157.273483,306.633606 157.273483,294.714630 157.273483,282.034515 
	C160.950287,282.034515 164.711639,281.833466 168.423767,282.172089 
	C169.383743,282.259674 170.566345,283.898804 171.001923,285.065887 
	C173.113083,290.722382 175.004730,296.460815 177.016205,302.532410 
z"/>
<path fill="#469CD4" opacity="1.000000" stroke="none" 
	d="
M334.748352,282.000000 
	C336.881744,282.932068 339.120514,283.458984 340.169647,284.870209 
	C343.667633,289.575500 346.739044,294.597839 350.762817,300.693817 
	C350.762817,293.821381 350.762817,288.211639 350.762817,282.309052 
	C354.096832,282.309052 356.803925,282.309052 359.757446,282.309052 
	C359.757446,294.425446 359.757446,306.334351 359.757446,318.571564 
	C354.887909,319.539917 350.752319,319.743591 347.916382,314.178955 
	C345.444275,309.328217 341.960876,304.992859 338.149902,299.266083 
	C338.149902,306.522614 338.149902,312.388275 338.149902,318.622406 
	C335.037445,318.622406 332.329742,318.622406 329.305725,318.622406 
	C329.305725,306.587463 329.305725,294.555145 329.305725,282.000000 
	C331.084045,282.000000 332.696381,282.000000 334.748352,282.000000 
z"/>
<path fill="#469CD4" opacity="1.000000" stroke="none" 
	d="
M447.915344,317.634094 
	C441.640991,320.115448 439.475677,319.514252 436.351196,314.719360 
	C433.093079,309.719360 429.909821,304.670593 425.956085,298.489868 
	C425.956085,306.053131 425.956085,312.262512 425.956085,318.726898 
	C422.955536,318.726898 420.359619,318.726898 417.377319,318.726898 
	C417.377319,306.745117 417.377319,294.708801 417.377319,282.661926 
	C425.564789,280.880707 426.791443,281.488068 430.740479,288.285004 
	C432.993835,292.163422 435.595764,295.839355 438.883301,300.904572 
	C438.883301,293.792175 438.883301,288.251343 438.883301,282.360809 
	C441.994415,282.360809 444.701233,282.360809 447.975861,282.360809 
	C447.975861,293.997467 447.975861,305.586090 447.915344,317.634094 
z"/>
<path fill="#469CD4" opacity="1.000000" stroke="none" 
	d="
M50.000000,304.993164 
	C50.000000,309.786316 50.000000,314.081238 50.000000,318.291931 
	C41.884457,319.924255 41.297386,319.539764 37.511433,313.101227 
	C34.805405,308.499237 31.711126,304.125519 28.086002,298.571167 
	C28.086002,305.987671 28.086002,312.168884 28.086002,318.668121 
	C24.948231,318.668121 22.241064,318.668121 19.263531,318.668121 
	C19.263531,306.620880 19.263531,294.711273 19.263531,282.790161 
	C26.684822,280.743958 28.095816,281.241211 32.075077,287.307648 
	C33.419945,289.357910 34.790531,291.391388 36.125992,293.447693 
	C37.438461,295.468597 38.721256,297.508759 40.896351,299.402435 
	C40.896351,293.758209 40.896351,288.113953 40.896351,282.248840 
	C44.095684,282.248840 46.690552,282.248840 50.000000,282.248840 
	C50.000000,289.667206 50.000000,297.081055 50.000000,304.993164 
z"/>
<path fill="#469CD4" opacity="1.000000" stroke="none" 
	d="
M455.000000,310.938293 
	C455.000000,301.163269 455.000000,291.878326 455.000000,281.892639 
	C463.926331,282.967438 472.723816,279.683289 480.823212,285.209869 
	C486.949280,289.389984 488.358765,295.814667 487.688202,301.978058 
	C486.323547,314.521576 479.922699,318.077850 467.115448,318.959747 
	C463.325562,319.220734 459.502502,319.000000 455.000000,319.000000 
	C455.000000,316.277283 455.000000,313.852814 455.000000,310.938293 
M477.885132,299.683105 
	C474.788696,290.202209 473.405396,289.188568 465.000000,290.625031 
	C465.000000,293.846405 465.000000,297.146545 465.000000,300.446655 
	C465.000000,303.888245 465.000000,307.329834 465.000000,310.731110 
	C472.928192,311.085754 475.153961,309.230194 477.885132,299.683105 
z"/>
<path fill="#469CD4" opacity="1.000000" stroke="none" 
	d="
M177.098068,218.688843 
	C180.530518,219.542404 183.893494,219.934021 187.884399,220.398758 
	C187.884399,215.654083 187.884399,211.588791 187.884399,207.271469 
	C191.385513,207.271469 194.318665,207.271469 197.629593,207.271469 
	C197.629593,219.296722 197.629593,231.349167 197.629593,243.702271 
	C194.664505,243.702271 191.728836,243.702271 188.212250,243.702271 
	C188.212250,239.094513 188.212250,234.366608 188.212250,229.323730 
	C184.259781,229.323730 180.880478,229.323730 177.089752,229.323730 
	C177.089752,234.099594 177.089752,238.706268 177.089752,243.650574 
	C173.645309,243.650574 170.598877,243.650574 167.272339,243.650574 
	C167.272339,231.614517 167.272339,219.683716 167.272339,207.375610 
	C170.304626,207.375610 173.350998,207.375610 177.028610,207.375610 
	C177.028610,210.997589 177.028610,214.612228 177.098068,218.688843 
z"/>
<path fill="#469CD4" opacity="1.000000" stroke="none" 
	d="
M246.659180,237.226242 
	C241.445755,226.467346 242.185715,217.381927 248.547668,210.950668 
	C257.429840,201.971741 271.989380,204.898056 277.196838,216.507950 
	C281.174896,225.376923 277.584595,238.369370 270.323761,242.249420 
	C262.772064,246.284882 251.450607,244.280090 246.659180,237.226242 
M267.995850,230.172440 
	C268.112457,229.530411 268.173065,228.872116 268.354340,228.248901 
	C270.049286,222.421631 267.190308,215.592941 262.462006,214.219101 
	C258.355377,213.025879 254.891174,216.503586 253.261963,223.466003 
	C253.149918,223.944870 252.988266,224.446548 253.030182,224.921677 
	C253.419220,229.330566 254.485413,233.814987 258.764252,235.681396 
	C263.004578,237.530975 265.840485,234.464417 267.995850,230.172440 
z"/>
<path fill="#469CD4" opacity="1.000000" stroke="none" 
	d="
M344.898895,206.904480 
	C348.543671,209.488449 352.832520,211.378479 354.796387,214.659927 
	C359.261047,222.119934 359.032257,238.990860 346.842560,242.894043 
	C334.489410,246.849579 323.269348,242.510468 322.118683,227.555222 
	C321.190582,215.492294 325.222687,209.317337 334.881012,206.754913 
	C337.865326,205.963150 341.273315,206.768326 344.898895,206.904480 
M335.784637,234.936966 
	C341.444733,237.065445 345.268372,235.990891 346.358734,230.849655 
	C347.170227,227.023315 346.518555,222.732956 345.792297,218.782761 
	C345.208984,215.609894 342.461487,213.294876 339.265198,214.210449 
	C336.913727,214.883987 334.235535,217.022385 333.213898,219.212753 
	C330.775116,224.441589 331.654449,229.765106 335.784637,234.936966 
z"/>
<path fill="#469CD4" opacity="1.000000" stroke="none" 
	d="
M206.965988,213.144119 
	C212.670181,206.316605 220.654205,204.233459 228.416153,207.201157 
	C235.442627,209.887680 238.906799,215.643372 239.024277,224.368469 
	C239.134354,232.543076 237.024918,239.933228 228.828949,242.891739 
	C216.870667,247.208328 204.278366,241.791275 204.155472,227.261124 
	C204.116791,222.686951 205.915405,218.097260 206.965988,213.144119 
M228.992081,228.011124 
	C228.992310,226.014557 229.729355,223.565201 228.838821,222.115982 
	C227.004471,219.130753 224.778183,215.477371 221.835632,214.309036 
	C218.040070,212.802002 215.187454,216.468338 214.729797,219.985992 
	C214.197098,224.080246 214.556656,228.463791 215.511093,232.488922 
	C215.868408,233.995850 218.984909,235.748428 220.850464,235.756531 
	C222.907547,235.765442 225.164825,234.146683 226.960892,232.754440 
	C228.003662,231.946106 228.311295,230.189362 228.992081,228.011124 
z"/>
<path fill="#469CD4" opacity="1.000000" stroke="none" 
	d="
M311.768066,318.123779 
	C300.262024,321.221100 291.816711,316.908630 288.920898,307.979187 
	C285.432922,297.224091 289.692810,285.016998 297.966675,282.081055 
	C307.000488,278.875458 317.844513,282.562408 320.928101,289.987030 
	C325.644806,301.343964 322.336243,314.977356 311.768066,318.123779 
M301.679016,310.126556 
	C305.422516,311.832825 308.806305,311.502533 311.002380,307.761108 
	C313.553741,303.414398 314.113342,298.477051 311.751648,294.106201 
	C310.534973,291.854370 307.405029,289.543121 304.990173,289.372406 
	C303.002472,289.231903 299.540619,291.831604 298.928528,293.874847 
	C297.341919,299.171173 296.372894,304.920532 301.679016,310.126556 
z"/>
<path fill="#469CD4" opacity="1.000000" stroke="none" 
	d="
M109.029327,317.408722 
	C100.974480,319.795776 93.541183,320.593018 87.262268,313.824097 
	C81.218460,307.308685 81.180260,292.759369 87.446220,286.053894 
	C93.577728,279.492310 105.288742,278.814178 112.501732,285.336914 
	C119.928864,292.053345 121.123909,310.316925 109.029327,317.408722 
M99.650856,310.998322 
	C105.417175,311.485107 106.757622,307.192444 107.851509,303.041840 
	C109.213089,297.875458 107.131256,291.726532 103.037804,290.230499 
	C100.903954,289.450653 97.349174,289.826080 95.616241,291.184784 
	C89.999115,295.588776 92.213196,307.788055 99.650856,310.998322 
z"/>
<path fill="#469CD4" opacity="1.000000" stroke="none" 
	d="
M124.000000,298.002594 
	C124.000000,292.538513 124.000000,287.573639 124.000000,282.043030 
	C130.155457,282.043030 135.965454,281.621338 141.677536,282.187408 
	C145.658737,282.581970 148.901108,284.831085 150.190659,289.277802 
	C151.521576,293.867126 151.868881,298.167999 147.895187,301.502686 
	C145.067093,303.876007 145.402634,305.669891 147.572617,308.325134 
	C149.784729,311.031982 151.334305,314.280273 153.227295,317.378754 
	C150.403854,317.978333 148.165543,318.860596 145.959000,318.787201 
	C144.335068,318.733215 142.213455,317.845032 141.255981,316.602448 
	C138.692703,313.275879 136.636444,309.558624 133.292404,306.156677 
	C133.292404,310.264832 133.292404,314.372986 133.292404,318.733276 
	C129.941620,318.733276 127.340889,318.733276 124.000000,318.733276 
	C124.000000,312.019318 124.000000,305.260529 124.000000,298.002594 
M133.428574,289.302917 
	C133.253311,292.359558 133.078064,295.416199 132.892395,298.654388 
	C136.622116,299.289703 139.817184,299.247803 140.861496,295.521606 
	C141.878937,291.891296 139.346848,290.245148 136.105057,289.558014 
	C135.479218,289.425354 134.865341,289.236389 133.428574,289.302917 
z"/>
<path fill="#469CD4" opacity="1.000000" stroke="none" 
	d="
M393.085205,311.000000 
	C391.092133,311.495544 388.313599,311.802887 388.205383,312.515625 
	C387.045837,320.152679 381.924896,319.642212 376.050903,318.592224 
	C380.077423,307.007812 383.975616,295.439453 388.260925,284.016327 
	C388.683868,282.888947 391.497864,282.073639 393.165436,282.133514 
	C395.754242,282.226501 400.040924,282.500732 400.606323,283.905884 
	C404.812408,294.358948 408.284424,305.107788 411.950958,315.776093 
	C412.098816,316.206390 411.887634,316.760071 411.814514,317.586578 
	C408.871613,318.111450 405.870697,318.646667 402.572754,319.234894 
	C401.214081,314.438934 400.315063,309.237946 393.085205,311.000000 
M395.114685,297.364380 
	C394.795471,296.591888 394.476257,295.819397 393.811005,294.209473 
	C392.685638,297.568054 391.875031,299.987183 390.994354,302.615540 
	C393.115234,302.615540 394.945984,302.615540 396.975006,302.615540 
	C396.408844,300.821289 395.970276,299.431488 395.114685,297.364380 
z"/>
<path fill="#469CD4" opacity="1.000000" stroke="none" 
	d="
M227.043961,315.831238 
	C226.512985,314.051392 226.033524,312.680908 225.568405,311.351410 
	C214.673950,310.210114 214.673950,310.210114 211.291138,318.822479 
	C208.371979,318.822479 205.416992,318.822479 201.699265,318.822479 
	C202.872696,315.623291 203.913132,312.814056 204.934158,309.997772 
	C207.933762,301.723907 210.786758,293.391693 214.051941,285.224152 
	C214.622559,283.796814 216.914108,282.186462 218.411423,282.185883 
	C221.330811,282.184784 225.279190,280.135345 226.907898,284.695007 
	C229.649338,292.369812 232.328873,300.066681 235.032944,307.754791 
	C236.144165,310.914154 237.251556,314.074829 238.898499,318.767242 
	C234.281021,316.007874 229.967056,322.405029 227.043961,315.831238 
M222.514374,301.035156 
	C221.662155,298.797882 220.809921,296.560638 219.684753,293.606842 
	C218.650726,297.255157 217.906967,299.879303 216.883591,303.490021 
	C219.224289,302.809875 221.037430,302.283020 222.514374,301.035156 
z"/>
<path fill="#469CD4" opacity="1.000000" stroke="none" 
	d="
M110.379463,227.736298 
	C103.109749,223.473923 101.061699,217.921265 104.185043,211.640594 
	C106.929512,206.121780 116.074371,204.823456 127.152969,208.664551 
	C126.783867,211.227310 126.397858,213.907501 125.951721,217.005234 
	C123.091927,216.127747 120.706131,215.049332 118.227783,214.757843 
	C116.593994,214.565689 114.826996,215.506027 113.119637,215.939270 
	C114.118240,217.275879 114.852371,219.043930 116.173782,219.853928 
	C118.499199,221.279419 121.321861,221.881348 123.687553,223.256180 
	C128.063858,225.799454 129.979156,230.749863 128.775787,235.460144 
	C127.565521,240.197510 123.473976,243.863159 118.525032,243.916473 
	C114.440620,243.960495 110.306931,243.544464 106.280098,242.843750 
	C104.611603,242.553406 102.242233,242.409760 102.800011,238.890671 
	C103.776245,232.731354 103.338844,232.833466 109.353371,234.616821 
	C112.437210,235.531189 117.058434,238.354492 118.516701,234.221451 
	C120.044533,229.891266 114.362747,229.902252 111.635216,228.253540 
	C111.360672,228.087570 111.018478,228.033524 110.379463,227.736298 
z"/>
<path fill="#469CD4" opacity="1.000000" stroke="none" 
	d="
M133.877960,232.776154 
	C131.010040,219.893066 134.302261,209.333221 145.768204,206.612183 
	C150.774704,205.424057 155.825272,205.858459 160.847122,208.774231 
	C160.447388,211.328568 160.046127,213.892593 159.557785,217.013138 
	C153.812866,215.517914 147.318024,211.931961 143.574142,219.998413 
	C141.567520,224.321793 143.061783,230.854843 146.258667,233.762680 
	C150.805267,237.898193 155.024506,235.471298 159.164246,233.033096 
	C163.625977,240.482864 160.130539,243.856583 153.307922,243.998962 
	C142.002502,244.234879 137.136017,241.511810 133.877960,232.776154 
z"/>
<path fill="#469CD4" opacity="1.000000" stroke="none" 
	d="
M67.531097,296.539368 
	C70.678917,296.843231 73.484177,296.843231 76.514320,296.843231 
	C76.934166,299.600403 77.294113,301.964172 77.735252,304.861206 
	C74.373718,304.861206 70.987671,304.861206 67.216560,304.861206 
	C67.216560,309.632965 67.216560,313.895844 67.216560,318.579285 
	C63.791084,318.579285 60.747520,318.579285 57.346985,318.579285 
	C57.346985,306.671631 57.346985,294.638336 57.346985,282.301208 
	C64.782425,282.301208 72.155167,282.301208 79.764412,282.301208 
	C79.764412,284.783264 79.764412,287.046906 79.764412,289.878235 
	C75.666199,289.878235 71.601738,289.878235 67.188538,289.878235 
	C67.188538,292.366852 67.188538,294.301178 67.531097,296.539368 
z"/>
<path fill="#469CD4" opacity="1.000000" stroke="none" 
	d="
M379.974274,215.000000 
	C377.540802,215.000000 375.578522,215.000000 373.311310,215.000000 
	C373.311310,217.421021 373.311310,219.462173 373.311310,221.481110 
	C382.437469,222.841385 382.437469,222.841385 383.350952,230.099625 
	C380.041168,230.099625 376.776031,230.099625 373.132782,230.099625 
	C373.132782,234.725311 373.132782,238.984573 373.132782,243.619080 
	C369.717224,243.619080 366.677704,243.619080 363.314362,243.619080 
	C363.314362,231.614807 363.314362,219.596268 363.314362,207.287933 
	C370.801483,207.287933 378.165894,207.287933 385.765198,207.287933 
	C385.765198,209.784515 385.765198,212.046463 385.765198,215.000000 
	C383.962219,215.000000 382.203857,215.000000 379.974274,215.000000 
z"/>
<path fill="#469CD4" opacity="1.000000" stroke="none" 
	d="
M255.952164,282.000000 
	C257.775513,282.000000 259.107697,281.998871 260.439911,282.000214 
	C267.395172,282.007111 267.521790,282.161316 266.524567,289.844543 
	C263.643707,289.844543 260.702484,289.844543 257.191406,289.844543 
	C257.191406,299.593445 257.191406,308.985138 257.191406,318.682373 
	C253.582657,318.682373 250.538452,318.682373 247.090500,318.682373 
	C247.090500,309.229309 247.090500,299.967041 247.090500,290.133759 
	C243.655304,290.133759 240.601044,290.133759 237.277969,290.133759 
	C237.277969,287.295563 237.277969,285.026245 237.277969,282.000000 
	C243.278503,282.000000 249.369766,282.000000 255.952164,282.000000 
z"/>
<path fill="#469CD4" opacity="1.000000" stroke="none" 
	d="
M301.764801,244.000000 
	C295.692932,244.000000 290.093597,244.000000 284.253510,244.000000 
	C284.253510,231.602127 284.253510,219.707062 284.253510,207.405258 
	C287.238342,207.405258 290.276947,207.405258 293.866486,207.405258 
	C293.866486,216.335724 293.866486,225.371964 293.866486,234.879272 
	C300.340363,234.985733 308.146576,233.078934 306.328827,244.000000 
	C305.176056,244.000000 303.706696,244.000000 301.764801,244.000000 
z"/>
<path fill="#469CD4" opacity="1.000000" stroke="none" 
	d="
M280.725037,318.892639 
	C277.774841,318.968231 275.287354,318.968231 272.400208,318.968231 
	C272.400208,306.797913 272.400208,294.773193 272.400208,282.372314 
	C275.303589,282.372314 278.343231,282.372314 281.187744,282.372314 
	C281.187744,294.535828 281.187744,306.676422 280.725037,318.892639 
z"/>
<path fill="#469CD4" opacity="1.000000" stroke="none" 
	d="
M11.000000,304.993164 
	C11.000000,309.779663 11.000000,314.067932 11.000000,318.675842 
	C7.935818,318.675842 5.231483,318.675842 2.260518,318.675842 
	C2.260518,306.627197 2.260518,294.730103 2.260518,282.415771 
	C4.888056,282.415771 7.593407,282.415771 11.000000,282.415771 
	C11.000000,289.683502 11.000000,297.089203 11.000000,304.993164 
z"/>
<path fill="#469CD4" opacity="1.000000" stroke="none" 
	d="
M301.275635,64.801804 
	C287.981018,51.129738 274.935394,37.715126 261.000000,23.385572 
	C261.000000,28.240183 261.000000,31.824274 261.000000,35.408367 
	C261.000000,53.236954 260.922394,71.066078 261.046692,88.893799 
	C261.084595,94.332085 261.556610,99.777679 262.055756,105.199120 
	C262.448547,109.465370 266.433014,112.662285 271.478821,112.971672 
	C273.777039,113.112579 276.091064,112.995605 278.684418,112.995605 
	C278.684418,114.751198 278.684418,116.131721 278.684418,117.757401 
	C264.924164,117.757401 251.323227,117.757401 237.321518,117.757401 
	C237.229309,116.349808 237.139084,114.972397 237.057892,113.732994 
	C237.657394,113.408524 237.949646,113.106163 238.219162,113.125229 
	C249.632645,113.932838 252.293350,108.812508 252.134659,98.551758 
	C251.730133,72.398308 251.767059,46.230667 252.190231,20.077810 
	C252.278259,14.637733 249.683548,12.783761 245.714127,11.341246 
	C240.076111,9.292349 231.173294,10.961030 228.442337,15.339122 
	C226.476227,18.491072 225.231812,22.609846 225.149246,26.330296 
	C224.798080,42.151623 224.713562,57.991650 225.068298,73.812813 
	C225.577927,96.541229 212.401398,113.539497 190.685883,118.567368 
	C172.222992,122.842140 154.094025,122.226074 137.668503,111.237991 
	C126.166054,103.543274 120.485962,92.213402 120.124931,78.693733 
	C119.626953,60.045330 120.009979,41.373661 119.995407,22.711973 
	C119.989014,14.516453 117.428658,11.712187 109.439613,10.989236 
	C106.791733,10.749622 104.290077,10.309581 105.323082,6.299055 
	C120.335022,6.299055 135.413345,6.299055 150.558304,6.299055 
	C152.136993,10.686389 148.385086,10.515411 146.308792,10.887000 
	C138.044800,12.365989 136.000977,14.560758 136.000381,22.906008 
	C135.999146,40.234730 135.805145,57.566204 136.049728,74.891472 
	C136.349976,96.160263 150.852112,109.158524 171.230331,109.980400 
	C180.838821,110.367920 190.323517,110.129623 199.043350,105.035835 
	C208.124725,99.730835 214.265167,92.047058 214.813568,81.667770 
	C215.811890,62.772717 215.882370,43.817532 215.908157,24.886847 
	C215.921158,15.337708 212.189743,11.827122 202.523972,11.048512 
	C199.239731,10.783957 198.587631,9.262950 199.438828,6.000000 
	C204.670731,6.000000 209.971481,6.000000 215.272232,6.000000 
	C229.268509,6.000000 243.318542,6.742322 257.241760,5.733867 
	C266.227814,5.083011 270.933411,9.856094 275.827423,15.541104 
	C276.677460,16.528530 277.290314,17.732208 278.193604,18.659861 
	C292.228607,33.073547 306.350952,47.402645 320.331360,61.868935 
	C329.748596,71.613464 338.975067,81.542343 348.751404,91.879951 
	C348.850739,90.048012 348.989532,88.671684 348.990387,87.295280 
	C349.004120,65.801010 349.000977,44.306732 348.999512,22.812452 
	C348.998932,14.179753 346.178406,11.274686 337.540802,10.999743 
	C332.625702,10.843290 332.211792,10.458423 332.573242,6.183109 
	C346.506348,6.183109 360.454926,6.183109 375.734222,6.183109 
	C374.578369,7.900352 374.100616,9.417220 373.125549,9.875156 
	C371.548584,10.615781 369.657318,10.846933 367.876801,10.966562 
	C360.143982,11.486111 358.013428,13.624911 358.008301,21.357033 
	C357.988129,51.848904 358.000000,82.340797 358.000000,112.832680 
	C358.000000,114.648048 358.000000,116.463417 358.000000,118.414650 
	C351.137146,120.835083 349.007904,114.838470 345.439941,111.768456 
	C343.721771,110.290047 342.577515,108.166283 340.982361,106.519806 
	C328.606720,93.746101 316.175079,81.026634 303.796112,68.256119 
	C302.896759,67.328331 302.275299,66.131172 301.275635,64.801804 
z"/>
<path fill="#469CD4" opacity="1.000000" stroke="none" 
	d="
M75.176849,36.568241 
	C74.390526,35.115173 73.695740,33.379665 72.555077,33.006294 
	C67.794327,31.447969 62.915131,30.236643 58.048233,29.022921 
	C55.025726,28.269159 51.948055,27.735983 48.893131,27.113701 
	C48.569630,27.047804 48.174797,26.919403 47.910294,27.037600 
	C42.797123,29.322449 37.788631,29.944992 32.415062,27.403788 
	C31.977928,27.197062 28.286345,30.376293 25.371323,30.275581 
	C23.860531,30.223383 22.354900,30.021765 22.283751,30.015438 
	C17.708427,31.514677 14.201043,32.724670 10.636453,33.732296 
	C10.302824,33.826607 9.061728,32.468559 9.183955,32.085094 
	C9.538205,30.973701 10.154119,29.436848 11.056076,29.096189 
	C15.156774,27.547407 19.310032,25.692495 23.594053,25.166355 
	C32.732311,24.044043 42.017418,22.728165 51.142078,23.248856 
	C61.685413,23.850500 72.140343,26.232656 82.591331,28.081032 
	C85.741676,28.638206 87.987549,29.913860 86.135925,34.252266 
	C84.884926,37.183372 85.062981,40.832333 85.043419,44.162796 
	C84.947624,60.470333 85.000000,76.778748 85.000000,93.086845 
	C85.000000,94.879761 85.000000,96.672668 85.000000,98.768768 
	C83.118523,98.859230 81.664772,98.868294 80.224190,99.010628 
	C76.886139,99.340469 75.937233,97.724724 75.954819,94.579338 
	C76.051552,77.273323 76.030533,59.966366 75.960320,42.660095 
	C75.952545,40.742970 75.376060,38.828156 75.176849,36.568241 
z"/>
<path fill="#469CD4" opacity="1.000000" stroke="none" 
	d="
M37.000000,58.000050 
	C36.999954,71.300247 36.924328,84.101196 37.050823,96.900154 
	C37.084160,100.273308 36.502041,102.113205 32.471542,102.118011 
	C28.372921,102.122902 27.938082,100.147400 27.954760,96.843231 
	C28.048740,78.225220 28.000101,59.606491 28.000088,40.988007 
	C28.000088,38.380783 28.000088,35.773560 28.000088,32.507141 
	C30.566675,32.507141 34.021133,32.507141 37.000000,32.507141 
	C37.000000,40.784660 37.000000,49.142361 37.000000,58.000050 
z"/>
<path fill="#469CD4" opacity="1.000000" stroke="none" 
	d="
M59.000000,60.000057 
	C59.000000,50.679047 59.000000,41.858013 59.000000,32.535934 
	C61.537449,32.535934 64.978760,32.535934 67.999596,32.535934 
	C67.999596,54.037678 67.948654,75.687607 68.052895,97.336784 
	C68.069084,100.699387 67.113625,102.107994 63.533398,102.095657 
	C60.034157,102.083588 58.900856,100.847801 58.942406,97.403793 
	C59.090794,85.104103 59.000179,72.801521 59.000000,60.000057 
z"/>
<path fill="#469CD4" opacity="1.000000" stroke="none" 
	d="
M11.000000,49.092087 
	C11.000000,44.700638 11.000000,40.794250 11.000000,36.436417 
	C13.645002,36.436417 17.130924,36.436417 20.220669,36.436417 
	C20.220669,57.153820 20.220669,77.816826 20.220669,98.735634 
	C16.936563,98.735634 14.338552,98.735634 11.000000,98.735634 
	C11.000000,82.368546 11.000000,65.972847 11.000000,49.092087 
z"/>
<path fill="#469CD4" opacity="1.000000" stroke="none" 
	d="
M53.046150,92.564926 
	C53.449612,94.405396 53.820148,95.789268 54.316788,97.644104 
	C50.083225,97.644104 46.369926,97.644104 42.058922,97.644104 
	C42.707897,91.602501 43.347561,85.647621 43.987221,79.692741 
	C44.443783,79.797836 44.900341,79.902939 45.356903,80.008034 
	C44.183014,78.639725 43.009129,77.271423 41.246155,75.216469 
	C46.305317,75.216469 50.231026,75.216469 53.013233,75.216469 
	C53.013233,80.853058 53.013233,86.480698 53.046150,92.564926 
z"/>
<path fill="#FFFFFF" opacity="1.000000" stroke="none" 
	d="
M186.045227,365.524292 
	C188.310837,365.495880 190.729340,365.520142 192.687439,366.481812 
	C193.504089,366.882935 194.085632,370.022888 193.482178,370.627014 
	C191.746078,372.365051 189.351166,373.444946 186.012299,375.537140 
	C186.012299,371.139893 186.012299,368.547607 186.045227,365.524292 
z"/>
<path fill="#FFFFFF" opacity="1.000000" stroke="none" 
	d="
M88.638832,382.744690 
	C86.387024,384.353851 84.350700,385.627228 81.274574,387.550842 
	C81.274574,383.227112 81.274574,380.818481 81.274574,378.271973 
	C85.094429,377.615845 87.990959,378.140167 88.638832,382.744690 
z"/>
<path fill="#FFFFFF" opacity="1.000000" stroke="none" 
	d="
M82.029243,370.869568 
	C81.358665,368.728577 81.102020,366.674225 80.845367,364.619843 
	C81.274406,364.186768 81.703445,363.753693 82.132484,363.320648 
	C84.072052,364.688263 87.391647,365.839661 87.647316,367.471161 
	C88.099144,370.354584 85.225487,371.254120 82.029243,370.869568 
z"/>
<path fill="#FFFFFF" opacity="1.000000" stroke="none" 
	d="
M119.229721,365.757019 
	C119.870430,367.975769 121.115250,370.507385 120.328262,371.715454 
	C119.367599,373.190186 116.700851,373.553528 114.208328,374.644104 
	C114.208328,370.485718 114.208328,367.409180 114.208328,363.609344 
	C116.057419,364.342682 117.495285,364.912903 119.229721,365.757019 
z"/>
<path fill="#FFFFFF" opacity="1.000000" stroke="none" 
	d="
M155.313782,373.694214 
	C155.851166,375.238953 156.190231,376.461365 156.525650,377.670654 
	C154.658218,377.670654 152.923981,377.670654 150.721527,377.670654 
	C151.677490,374.645477 152.497910,372.049255 153.532578,368.774994 
	C154.193375,370.694031 154.654419,372.032990 155.313782,373.694214 
z"/>
<path fill="#FFFFFF" opacity="1.000000" stroke="none" 
	d="
M477.921753,300.083374 
	C475.153961,309.230194 472.928192,311.085754 465.000000,310.731110 
	C465.000000,307.329834 465.000000,303.888245 465.000000,300.446655 
	C465.000000,297.146545 465.000000,293.846405 465.000000,290.625031 
	C473.405396,289.188568 474.788696,290.202209 477.921753,300.083374 
z"/>
<path fill="#FFFFFF" opacity="1.000000" stroke="none" 
	d="
M267.967926,230.575623 
	C265.840485,234.464417 263.004578,237.530975 258.764252,235.681396 
	C254.485413,233.814987 253.419220,229.330566 253.030182,224.921677 
	C252.988266,224.446548 253.149918,223.944870 253.261963,223.466003 
	C254.891174,216.503586 258.355377,213.025879 262.462006,214.219101 
	C267.190308,215.592941 270.049286,222.421631 268.354340,228.248901 
	C268.173065,228.872116 268.112457,229.530411 267.967926,230.575623 
z"/>
<path fill="#FFFFFF" opacity="1.000000" stroke="none" 
	d="
M335.436462,234.734955 
	C331.654449,229.765106 330.775116,224.441589 333.213898,219.212753 
	C334.235535,217.022385 336.913727,214.883987 339.265198,214.210449 
	C342.461487,213.294876 345.208984,215.609894 345.792297,218.782761 
	C346.518555,222.732956 347.170227,227.023315 346.358734,230.849655 
	C345.268372,235.990891 341.444733,237.065445 335.436462,234.734955 
z"/>
<path fill="#FFFFFF" opacity="1.000000" stroke="none" 
	d="
M228.970917,228.435242 
	C228.311295,230.189362 228.003662,231.946106 226.960892,232.754440 
	C225.164825,234.146683 222.907547,235.765442 220.850464,235.756531 
	C218.984909,235.748428 215.868408,233.995850 215.511093,232.488922 
	C214.556656,228.463791 214.197098,224.080246 214.729797,219.985992 
	C215.187454,216.468338 218.040070,212.802002 221.835632,214.309036 
	C224.778183,215.477371 227.004471,219.130753 228.838821,222.115982 
	C229.729355,223.565201 228.992310,226.014557 228.970917,228.435242 
z"/>
<path fill="#FFFFFF" opacity="1.000000" stroke="none" 
	d="
M301.377502,309.859558 
	C296.372894,304.920532 297.341919,299.171173 298.928528,293.874847 
	C299.540619,291.831604 303.002472,289.231903 304.990173,289.372406 
	C307.405029,289.543121 310.534973,291.854370 311.751648,294.106201 
	C314.113342,298.477051 313.553741,303.414398 311.002380,307.761108 
	C308.806305,311.502533 305.422516,311.832825 301.377502,309.859558 
z"/>
<path fill="#FFFFFF" opacity="1.000000" stroke="none" 
	d="
M99.247498,310.994080 
	C92.213196,307.788055 89.999115,295.588776 95.616241,291.184784 
	C97.349174,289.826080 100.903954,289.450653 103.037804,290.230499 
	C107.131256,291.726532 109.213089,297.875458 107.851509,303.041840 
	C106.757622,307.192444 105.417175,311.485107 99.247498,310.994080 
z"/>
<path fill="#FFFFFF" opacity="1.000000" stroke="none" 
	d="
M133.837250,289.188171 
	C134.865341,289.236389 135.479218,289.425354 136.105057,289.558014 
	C139.346848,290.245148 141.878937,291.891296 140.861496,295.521606 
	C139.817184,299.247803 136.622116,299.289703 132.892395,298.654388 
	C133.078064,295.416199 133.253311,292.359558 133.837250,289.188171 
z"/>
<path fill="#FFFFFF" opacity="1.000000" stroke="none" 
	d="
M395.323212,297.703064 
	C395.970276,299.431488 396.408844,300.821289 396.975006,302.615540 
	C394.945984,302.615540 393.115234,302.615540 390.994354,302.615540 
	C391.875031,299.987183 392.685638,297.568054 393.811005,294.209473 
	C394.476257,295.819397 394.795471,296.591888 395.323212,297.703064 
z"/>
<path fill="#FFFFFF" opacity="1.000000" stroke="none" 
	d="
M222.682465,301.395660 
	C221.037430,302.283020 219.224289,302.809875 216.883591,303.490021 
	C217.906967,299.879303 218.650726,297.255157 219.684753,293.606842 
	C220.809921,296.560638 221.662155,298.797882 222.682465,301.395660 
z"/>
</svg>