<svg id="svg" version="1.1" xmlns="http://www.w3.org/2000/svg" xmlns:xlink="http://www.w3.org/1999/xlink" width="400" height="400" viewBox="0, 0, 400,400"><g id="svgg"><path id="path0" d="M248.125 87.979 C 222.827 90.437,202.237 110.038,198.575 135.151 C 197.668 141.371,198.029 151.338,199.308 155.367 C 199.476 155.895,199.341 155.891,191.820 155.160 C 151.737 151.264,114.199 131.597,87.783 100.652 C 86.558 99.218,85.458 98.008,85.338 97.965 C 85.218 97.921,84.328 99.503,83.360 101.479 C 71.779 125.128,78.687 154.426,99.532 170.068 L 101.969 171.897 100.480 171.766 C 93.077 171.116,86.734 169.410,80.167 166.305 C 78.681 165.602,77.427 165.027,77.381 165.027 C 76.900 165.027,77.668 173.680,78.481 177.414 C 83.102 198.641,98.684 214.471,120.332 219.929 C 120.979 220.093,120.884 220.148,119.265 220.543 C 113.890 221.855,105.109 222.227,99.617 221.377 C 96.382 220.876,96.518 220.777,97.329 223.053 C 104.562 243.334,123.032 257.392,145.187 259.479 L 148.074 259.751 145.584 261.560 C 129.377 273.338,111.302 280.297,91.049 282.555 C 86.356 283.079,73.856 283.142,69.519 282.664 C 65.835 282.258,65.837 282.252,69.045 284.225 C 110.416 309.670,162.724 314.595,209.010 297.406 C 268.200 275.424,309.162 214.837,309.186 149.235 L 309.188 142.573 311.263 141.015 C 318.346 135.698,326.322 127.841,331.777 120.806 C 334.286 117.572,336.766 114.044,336.629 113.906 C 336.561 113.838,334.761 114.472,332.628 115.315 C 324.579 118.492,315.465 120.962,308.002 121.989 C 307.416 122.070,306.615 122.193,306.224 122.264 C 305.687 122.360,306.073 122.007,307.796 120.825 C 317.211 114.367,324.451 105.076,328.507 94.248 C 328.981 92.982,329.323 91.899,329.266 91.842 C 329.209 91.785,327.789 92.508,326.110 93.449 C 318.112 97.932,308.257 101.796,298.991 104.082 C 293.725 105.382,294.423 105.487,291.824 103.002 C 280.338 92.022,264.074 86.430,248.125 87.979 M244.660 109.603 C 245.858 112.113,246.837 114.245,246.834 114.341 C 246.831 114.436,245.060 116.970,242.899 119.972 L 238.969 125.430 236.223 125.430 C 233.632 125.430,233.497 125.406,233.829 125.015 C 234.023 124.787,235.970 122.332,238.156 119.559 L 242.131 114.518 239.766 110.312 C 238.465 107.998,237.278 105.865,237.127 105.572 L 236.853 105.039 239.667 105.039 L 242.481 105.039 244.660 109.603 M253.661 106.283 C 253.083 106.968,251.565 108.782,250.288 110.314 C 249.011 111.846,247.897 113.099,247.812 113.097 C 247.534 113.091,246.111 109.508,246.275 109.226 C 246.363 109.075,247.070 108.071,247.845 106.995 L 249.255 105.039 251.983 105.039 L 254.711 105.039 253.661 106.283 M250.332 121.103 L 252.717 125.430 249.832 125.428 L 246.947 125.427 245.678 122.719 C 244.897 121.054,244.480 119.890,244.594 119.697 C 245.833 117.612,247.363 115.926,247.645 116.336 C 247.811 116.578,249.020 118.723,250.332 121.103 " stroke="none" fill="#54acec" fill-rule="evenodd"></path><path id="path1" d="M237.107 105.155 C 237.107 105.219,238.274 107.352,239.700 109.894 L 242.293 114.515 238.032 119.913 L 233.770 125.311 236.074 125.380 C 237.341 125.417,238.504 125.400,238.658 125.340 C 238.907 125.245,239.936 123.858,245.250 116.456 C 246.928 114.118,247.027 114.826,244.208 108.969 L 242.317 105.039 239.712 105.039 C 238.279 105.039,237.107 105.091,237.107 105.155 M248.891 105.809 C 245.936 109.801,246.127 109.205,247.095 111.396 L 247.836 113.073 250.830 109.464 C 252.476 107.478,253.970 105.670,254.149 105.446 C 254.452 105.066,254.306 105.039,251.968 105.039 L 249.461 105.039 248.891 105.809 M246.020 117.921 C 244.423 120.081,244.433 119.622,245.916 122.807 L 247.136 125.430 249.833 125.430 L 252.529 125.430 252.069 124.541 C 251.815 124.052,250.649 121.959,249.477 119.890 L 247.346 116.129 246.020 117.921 " stroke="none" fill="#db3622" fill-rule="evenodd"></path><path id="path2" d="" stroke="none" fill="#ad8a9c" fill-rule="evenodd"></path><path id="path3" d="" stroke="none" fill="#9c9cb2" fill-rule="evenodd"></path><path id="path4" d="" stroke="none" fill="#8badda" fill-rule="evenodd"></path></g></svg>