<svg version="1.1" id="Layer_1" xmlns="http://www.w3.org/2000/svg" xmlns:xlink="http://www.w3.org/1999/xlink" x="0px" y="0px"
	 width="100%" viewBox="0 0 1687 1687" enable-background="new 0 0 1687 1687" xml:space="preserve">
<path fill="#000000" opacity="1.000000" stroke="none" 
	d="
M1073.000000,1688.000000 
	C715.333435,1688.000000 358.166870,1688.000000 1.000240,1688.000000 
	C1.000160,1125.666992 1.000160,563.333862 1.000080,1.000617 
	C563.332886,1.000411 1125.665771,1.000411 1687.999023,1.000206 
	C1687.999268,563.332703 1687.999268,1125.665405 1687.999634,1687.999023 
	C1483.166626,1688.000000 1278.333374,1688.000000 1073.000000,1688.000000 
M1292.700073,515.693909 
	C1292.573608,515.566589 1292.447144,515.439331 1292.781860,514.798035 
	C1340.193726,484.223083 1372.222778,441.873199 1390.500488,387.388092 
	C1388.192627,388.544159 1386.950806,389.146454 1385.726562,389.782562 
	C1370.311035,397.791779 1355.325806,406.817963 1339.375854,413.562653 
	C1319.439575,421.992950 1298.852905,428.983185 1278.266113,435.738312 
	C1267.073608,439.410828 1255.318604,441.401886 1243.760620,443.887115 
	C1242.300903,444.200958 1240.097046,443.343536 1238.914917,442.277924 
	C1232.518555,436.511871 1226.707764,430.044159 1220.006104,424.678925 
	C1202.438721,410.614655 1183.543701,398.734863 1162.711670,389.830963 
	C1136.813110,378.761597 1109.821533,372.699371 1081.886108,371.148041 
	C1061.969727,370.042023 1042.166260,371.889923 1022.500244,375.868469 
	C993.955261,381.643311 967.745361,392.797821 943.256287,408.271362 
	C926.564148,418.818329 911.505493,431.393494 898.429260,446.186218 
	C891.287170,454.265930 884.306641,462.565887 878.048157,471.333893 
	C862.640442,492.919800 851.578857,516.698181 844.409058,542.218994 
	C839.264832,560.529846 836.688293,579.288391 836.031677,598.280579 
	C835.339111,618.311340 837.461487,638.113647 841.947266,658.464783 
	C646.625427,644.726257 486.684784,562.727661 360.532806,413.703491 
	C331.821777,463.366394 322.662933,516.316223 332.215790,571.997559 
	C343.310669,636.666992 377.096100,687.550842 430.596497,725.700500 
	C393.852570,724.078857 359.715759,713.851196 327.020508,696.483521 
	C326.202667,737.343201 335.146149,775.129395 354.157532,810.150574 
	C388.331360,873.102783 441.149078,912.218750 510.579407,930.101318 
	C493.710632,932.957703 476.937256,936.160645 460.082672,936.668640 
	C443.135132,937.179443 426.106720,935.008301 409.280304,934.022156 
	C430.545349,1006.366699 503.929077,1090.572998 625.816833,1096.438232 
	C522.744019,1173.491943 408.366730,1205.305176 281.229950,1192.702759 
	C297.754486,1202.975586 313.995453,1213.191772 331.045258,1221.807495 
	C351.157898,1231.970947 371.579956,1241.760864 392.580170,1249.867676 
	C417.757477,1259.586548 443.412231,1268.317993 469.358215,1275.734985 
	C503.818420,1285.586060 539.235901,1291.249023 574.886780,1294.858032 
	C592.427368,1296.633789 610.100342,1297.386475 627.733459,1297.868408 
	C640.310242,1298.212280 652.925903,1297.469971 665.514038,1296.960449 
	C677.378418,1296.480103 689.257507,1295.984253 701.079407,1294.927490 
	C716.072449,1293.586914 731.076294,1292.092896 745.962158,1289.897095 
	C763.493469,1287.311035 781.074951,1284.648682 798.326843,1280.681152 
	C826.098145,1274.294312 853.377380,1266.085083 880.131287,1256.111694 
	C906.312622,1246.352051 931.815979,1235.180176 956.409729,1221.932129 
	C980.756287,1208.816895 1004.713074,1195.019897 1026.581665,1178.004639 
	C1046.702271,1162.349365 1067.373169,1147.202393 1086.028687,1129.917847 
	C1105.800049,1111.599243 1124.077148,1091.548340 1141.886475,1071.269775 
	C1156.085815,1055.101562 1169.346313,1037.977051 1181.706177,1020.353088 
	C1206.006348,985.703674 1226.974365,948.993225 1243.802979,910.140198 
	C1254.019775,886.552002 1263.358887,862.517883 1271.740112,838.217712 
	C1281.625610,809.556885 1289.343018,780.207214 1294.012817,750.170227 
	C1297.143311,730.034363 1300.670288,709.926575 1302.786987,689.677307 
	C1304.485718,673.428101 1304.508301,656.989868 1304.940186,640.626709 
	C1305.247803,628.968628 1304.913574,617.294556 1305.093994,605.631226 
	C1305.120850,603.894104 1305.963501,601.715820 1307.193604,600.545471 
	C1309.770508,598.093933 1312.955322,596.297424 1315.716797,594.021118 
	C1327.091431,584.645020 1338.875610,575.698730 1349.633911,565.656494 
	C1371.006226,545.706726 1390.666138,524.121460 1407.974243,500.489380 
	C1412.498169,494.312561 1416.833496,487.997589 1421.916138,480.811920 
	C1419.788940,481.116455 1418.942017,481.056702 1418.258057,481.361847 
	C1394.685913,491.879883 1370.424683,500.499664 1345.262695,506.201019 
	C1328.006348,510.111145 1310.479980,512.829590 1292.700073,515.693909 
z"/>
<path fill="#55ADEE" opacity="1.000000" stroke="none" 
	d="
M1293.074219,516.080688 
	C1310.479980,512.829590 1328.006348,510.111145 1345.262695,506.201019 
	C1370.424683,500.499664 1394.685913,491.879883 1418.258057,481.361847 
	C1418.942017,481.056702 1419.788940,481.116455 1421.916138,480.811920 
	C1416.833496,487.997589 1412.498169,494.312561 1407.974243,500.489380 
	C1390.666138,524.121460 1371.006226,545.706726 1349.633911,565.656494 
	C1338.875610,575.698730 1327.091431,584.645020 1315.716797,594.021118 
	C1312.955322,596.297424 1309.770508,598.093933 1307.193604,600.545471 
	C1305.963501,601.715820 1305.120850,603.894104 1305.093994,605.631226 
	C1304.913574,617.294556 1305.247803,628.968628 1304.940186,640.626709 
	C1304.508301,656.989868 1304.485718,673.428101 1302.786987,689.677307 
	C1300.670288,709.926575 1297.143311,730.034363 1294.012817,750.170227 
	C1289.343018,780.207214 1281.625610,809.556885 1271.740112,838.217712 
	C1263.358887,862.517883 1254.019775,886.552002 1243.802979,910.140198 
	C1226.974365,948.993225 1206.006348,985.703674 1181.706177,1020.353088 
	C1169.346313,1037.977051 1156.085815,1055.101562 1141.886475,1071.269775 
	C1124.077148,1091.548340 1105.800049,1111.599243 1086.028687,1129.917847 
	C1067.373169,1147.202393 1046.702271,1162.349365 1026.581665,1178.004639 
	C1004.713074,1195.019897 980.756287,1208.816895 956.409729,1221.932129 
	C931.815979,1235.180176 906.312622,1246.352051 880.131287,1256.111694 
	C853.377380,1266.085083 826.098145,1274.294312 798.326843,1280.681152 
	C781.074951,1284.648682 763.493469,1287.311035 745.962158,1289.897095 
	C731.076294,1292.092896 716.072449,1293.586914 701.079407,1294.927490 
	C689.257507,1295.984253 677.378418,1296.480103 665.514038,1296.960449 
	C652.925903,1297.469971 640.310242,1298.212280 627.733459,1297.868408 
	C610.100342,1297.386475 592.427368,1296.633789 574.886780,1294.858032 
	C539.235901,1291.249023 503.818420,1285.586060 469.358215,1275.734985 
	C443.412231,1268.317993 417.757477,1259.586548 392.580170,1249.867676 
	C371.579956,1241.760864 351.157898,1231.970947 331.045258,1221.807495 
	C313.995453,1213.191772 297.754486,1202.975586 281.229950,1192.702759 
	C408.366730,1205.305176 522.744019,1173.491943 625.816833,1096.438232 
	C503.929077,1090.572998 430.545349,1006.366699 409.280304,934.022156 
	C426.106720,935.008301 443.135132,937.179443 460.082672,936.668640 
	C476.937256,936.160645 493.710632,932.957703 510.579407,930.101318 
	C441.149078,912.218750 388.331360,873.102783 354.157532,810.150574 
	C335.146149,775.129395 326.202667,737.343201 327.020508,696.483521 
	C359.715759,713.851196 393.852570,724.078857 430.596497,725.700500 
	C377.096100,687.550842 343.310669,636.666992 332.215790,571.997559 
	C322.662933,516.316223 331.821777,463.366394 360.532806,413.703491 
	C486.684784,562.727661 646.625427,644.726257 841.947266,658.464783 
	C837.461487,638.113647 835.339111,618.311340 836.031677,598.280579 
	C836.688293,579.288391 839.264832,560.529846 844.409058,542.218994 
	C851.578857,516.698181 862.640442,492.919800 878.048157,471.333893 
	C884.306641,462.565887 891.287170,454.265930 898.429260,446.186218 
	C911.505493,431.393494 926.564148,418.818329 943.256287,408.271362 
	C967.745361,392.797821 993.955261,381.643311 1022.500244,375.868469 
	C1042.166260,371.889923 1061.969727,370.042023 1081.886108,371.148041 
	C1109.821533,372.699371 1136.813110,378.761597 1162.711670,389.830963 
	C1183.543701,398.734863 1202.438721,410.614655 1220.006104,424.678925 
	C1226.707764,430.044159 1232.518555,436.511871 1238.914917,442.277924 
	C1240.097046,443.343536 1242.300903,444.200958 1243.760620,443.887115 
	C1255.318604,441.401886 1267.073608,439.410828 1278.266113,435.738312 
	C1298.852905,428.983185 1319.439575,421.992950 1339.375854,413.562653 
	C1355.325806,406.817963 1370.311035,397.791779 1385.726562,389.782562 
	C1386.950806,389.146454 1388.192627,388.544159 1390.500488,387.388092 
	C1372.222778,441.873199 1340.193726,484.223083 1292.303223,515.256714 
	C1291.296631,515.954712 1290.768677,516.193970 1290.240723,516.433289 
	C1290.337646,516.667542 1290.434570,516.901794 1290.531616,517.135986 
	C1291.379150,516.784241 1292.226685,516.432434 1293.074219,516.080688 
M989.890625,525.923340 
	C989.890625,525.923340 989.863953,525.847229 989.241028,526.145630 
	C988.608093,527.198425 987.975220,528.251282 986.915527,530.013977 
	C993.996155,530.013977 1000.331848,530.162537 1006.648499,529.881775 
	C1007.833313,529.829102 1008.941895,528.060669 1010.642944,526.707520 
	C1019.737427,514.069641 1028.636230,501.283539 1038.037476,488.878052 
	C1041.134399,484.791382 1041.233887,481.466309 1039.048950,477.158203 
	C1033.619751,466.452942 1028.478027,455.601837 1022.611389,444.192657 
	C1016.294067,444.123444 1009.975891,443.992615 1003.660828,444.081451 
	C1003.037354,444.090240 1002.432861,445.443359 1001.939697,446.875305 
	C1008.135193,457.994141 1014.204407,469.186554 1020.609436,480.183289 
	C1022.348328,483.168640 1021.992676,485.051025 1019.937683,487.614319 
	C1010.509277,499.374298 1001.284058,511.297150 991.450806,523.420349 
	C990.904846,524.247375 990.358887,525.074341 989.890625,525.923340 
M1042.991333,528.976318 
	C1042.991333,528.976318 1043.044922,528.975891 1043.433594,529.751770 
	C1050.823120,529.751770 1058.212524,529.751770 1066.360718,529.751770 
	C1064.648804,526.974854 1063.389526,524.932129 1061.983887,522.197388 
	C1056.181274,511.793549 1050.378540,501.389709 1044.244751,490.392029 
	C1039.887329,496.332947 1036.012329,501.616302 1032.091309,506.962189 
	C1035.065186,512.969055 1038.056396,519.010864 1041.065674,525.693298 
	C1041.720947,526.775757 1042.376221,527.858215 1042.991333,528.976318 
M1050.319702,447.319031 
	C1046.570435,452.549561 1042.821045,457.780090 1039.247803,462.765137 
	C1041.497681,467.657928 1043.652954,472.345093 1046.285645,478.070190 
	C1055.190674,467.238953 1063.576172,457.039856 1072.544678,446.480560 
	C1072.924316,445.858276 1073.304077,445.236023 1074.086182,443.954193 
	C1067.185791,443.954193 1060.992065,443.778961 1054.822632,444.090515 
	C1053.461670,444.159241 1052.187988,445.952911 1050.319702,447.319031 
z"/>
<path fill="#DD3621" opacity="1.000000" stroke="none" 
	d="
M1023.220886,444.809326 
	C1028.478027,455.601837 1033.619751,466.452942 1039.048950,477.158203 
	C1041.233887,481.466309 1041.134399,484.791382 1038.037476,488.878052 
	C1028.636230,501.283539 1019.737427,514.069641 1010.017639,527.060425 
	C1003.596619,527.876465 997.804749,528.441162 991.999817,528.665466 
	C991.325134,528.691528 990.577637,526.832397 989.863953,525.847229 
	C989.863953,525.847229 989.890625,525.923340 990.144531,525.796753 
	C990.927673,524.834045 991.456848,523.997864 991.985962,523.161621 
	C1001.284058,511.297150 1010.509277,499.374298 1019.937683,487.614319 
	C1021.992676,485.051025 1022.348328,483.168640 1020.609436,480.183289 
	C1014.204407,469.186554 1008.135193,457.994141 1002.234436,446.282898 
	C1009.426392,445.396759 1016.323669,445.103058 1023.220886,444.809326 
z"/>
<path fill="#DB3722" opacity="1.000000" stroke="none" 
	d="
M1041.047485,525.052612 
	C1038.056396,519.010864 1035.065186,512.969055 1032.091309,506.962189 
	C1036.012329,501.616302 1039.887329,496.332947 1044.244751,490.392029 
	C1050.378540,501.389709 1056.181274,511.793549 1062.076294,522.901855 
	C1062.598389,525.120361 1063.028076,526.634460 1063.692505,528.975891 
	C1056.398560,528.975891 1049.721802,528.975891 1043.044922,528.975891 
	C1043.044922,528.975891 1042.991333,528.976318 1043.018311,528.624878 
	C1042.379395,527.199829 1041.713501,526.126221 1041.047485,525.052612 
z"/>
<path fill="#DB3722" opacity="1.000000" stroke="none" 
	d="
M1071.961548,446.840759 
	C1063.576172,457.039856 1055.190674,467.238953 1046.285645,478.070190 
	C1043.652954,472.345093 1041.497681,467.657928 1039.247803,462.765137 
	C1042.821045,457.780090 1046.570435,452.549561 1050.944824,446.958801 
	C1058.088989,446.279938 1064.607178,445.946899 1071.128784,445.694855 
	C1071.391235,445.684723 1071.683350,446.441345 1071.961548,446.840759 
z"/>
<path fill="#B6463C" opacity="1.000000" stroke="none" 
	d="
M1043.239258,529.363831 
	C1049.721802,528.975891 1056.398560,528.975891 1063.692505,528.975891 
	C1063.028076,526.634460 1062.598389,525.120361 1062.149414,523.247864 
	C1063.389526,524.932129 1064.648804,526.974854 1066.360718,529.751770 
	C1058.212524,529.751770 1050.823120,529.751770 1043.239258,529.363831 
z"/>
<path fill="#B74236" opacity="1.000000" stroke="none" 
	d="
M989.552490,525.996460 
	C990.577637,526.832397 991.325134,528.691528 991.999817,528.665466 
	C997.804749,528.441162 1003.596619,527.876465 1009.739014,527.248657 
	C1008.941895,528.060669 1007.833313,529.829102 1006.648499,529.881775 
	C1000.331848,530.162537 993.996155,530.013977 986.915527,530.013977 
	C987.975220,528.251282 988.608093,527.198425 989.552490,525.996460 
z"/>
<path fill="#B6463C" opacity="1.000000" stroke="none" 
	d="
M1072.253174,446.660645 
	C1071.683350,446.441345 1071.391235,445.684723 1071.128784,445.694855 
	C1064.607178,445.946899 1058.088989,446.279938 1051.222046,446.775391 
	C1052.187988,445.952911 1053.461670,444.159241 1054.822632,444.090515 
	C1060.992065,443.778961 1067.185791,443.954193 1074.086182,443.954193 
	C1073.304077,445.236023 1072.924316,445.858276 1072.253174,446.660645 
z"/>
<path fill="#B73F30" opacity="1.000000" stroke="none" 
	d="
M1022.916138,444.500977 
	C1016.323669,445.103058 1009.426392,445.396759 1002.174316,445.931519 
	C1002.432861,445.443359 1003.037354,444.090240 1003.660828,444.081451 
	C1009.975891,443.992615 1016.294067,444.123444 1022.916138,444.500977 
z"/>
<path fill="#B6463C" opacity="1.000000" stroke="none" 
	d="
M1041.056641,525.372925 
	C1041.713501,526.126221 1042.379395,527.199829 1043.038452,528.607056 
	C1042.376221,527.858215 1041.720947,526.775757 1041.056641,525.372925 
z"/>
<path fill="#B74236" opacity="1.000000" stroke="none" 
	d="
M991.718384,523.291016 
	C991.456848,523.997864 990.927673,524.834045 990.105713,525.785767 
	C990.358887,525.074341 990.904846,524.247375 991.718384,523.291016 
z"/>
<path fill="#000000" opacity="1.000000" stroke="none" 
	d="
M1292.887207,515.887329 
	C1292.226685,516.432434 1291.379150,516.784241 1290.531616,517.135986 
	C1290.434570,516.901794 1290.337646,516.667542 1290.240723,516.433289 
	C1290.768677,516.193970 1291.296631,515.954712 1292.072754,515.513794 
	C1292.447144,515.439331 1292.573608,515.566589 1292.887207,515.887329 
z"/>
</svg>